<svg width="90" height="50" viewBox="0 0 90 50" fill="none" xmlns="http://www.w3.org/2000/svg">
<g clip-path="url(#clip0_168_1824)">
<path d="M42.7119 26.1632H48.1832V27.6932H41.0493V18.4658H42.7119V26.1632ZM56.6006 25.7368H51.9348L50.959 27.6742H49.159L53.9527 18.3332H54.5874L59.419 27.6932H57.5764L56.6006 25.7368ZM55.8569 24.2589L54.2748 21.1232L52.6595 24.2589H55.8569ZM48.51 35.6842H51.9064V35.2863H48.9316V33.5005H51.3V33.1026H48.9316V31.4495H51.9064V31.0516H48.4958L48.51 35.6842ZM44.493 34.8553L41.5372 31.0658H41.2103V35.6842H41.6367V31.8947L44.5924 35.6842H44.9145V31.0516H44.4882L44.493 34.8553ZM16.1904 25.7368C14.6462 24.7074 12.6235 24.1484 10.1225 24.06V23.7426C11.6345 23.5813 13.1152 23.2016 14.5183 22.6153C17.0825 21.3174 18.3646 19.3089 18.3646 16.59C18.3675 15.6161 18.1682 14.6523 17.7793 13.7594C17.3904 12.8666 16.8202 12.0642 16.1051 11.4032C14.5893 9.92526 12.4009 9.18632 9.53985 9.18632C7.0388 9.18632 5.08404 9.73735 3.67562 10.8395C3.02298 11.3049 2.49112 11.9196 2.12444 12.6324C1.75775 13.3451 1.56686 14.1353 1.56772 14.9368C1.54913 15.3811 1.62383 15.8243 1.787 16.238C1.95017 16.6516 2.1982 17.0265 2.51509 17.3384C2.84525 17.6463 3.2337 17.885 3.65755 18.0403C4.0814 18.1957 4.53206 18.2647 4.98301 18.2432C6.58089 18.2432 7.37985 17.4726 7.37985 15.9316C7.37985 14.7474 6.3772 13.9105 4.37193 13.4211C3.95035 13.35 3.74193 13.1463 3.74193 12.8763C3.74193 12.1784 4.2014 11.5674 5.12038 11.0432C6.11009 10.4937 7.2287 10.219 8.36037 10.2474C9.12211 10.2197 9.88024 10.3652 10.5776 10.6729C11.275 10.9805 11.8936 11.4424 12.3867 12.0237C13.3814 13.1858 13.8804 14.7269 13.8835 16.6468C13.9554 18.4175 13.3392 20.1473 12.1641 21.4737C11.0019 22.699 9.37089 23.4679 7.2709 23.7805C6.54616 23.88 6.18616 23.9795 6.18616 24.2542C6.18616 24.5289 6.38038 24.6616 6.77353 24.6616H8.07617C12.6614 24.6616 14.9556 27.2195 14.9588 32.3353C14.9588 34.8616 14.2419 36.9142 12.8083 38.4932C12.1042 39.2699 11.2396 39.884 10.2744 40.293C9.30917 40.702 8.26649 40.896 7.2188 40.8616C6.33538 40.8761 5.45788 40.7151 4.63719 40.3879C3.85088 40.0705 3.45772 39.7153 3.45772 39.3174C3.45772 39.0616 3.74667 38.8437 4.31983 38.5879C5.7409 37.9863 6.44669 37.1668 6.44669 36.0821C6.45413 35.7556 6.38971 35.4315 6.25788 35.1327C6.1261 34.8339 5.93019 34.5678 5.68406 34.3532C5.14411 33.8883 4.44929 33.6432 3.73719 33.6663C2.86831 33.6243 2.0177 33.9254 1.36877 34.5047C1.06988 34.7939 0.83558 35.143 0.681277 35.5292C0.526974 35.9153 0.456169 36.3298 0.473511 36.7453C0.47584 37.2896 0.589685 37.8276 0.808025 38.3262C1.02637 38.8248 1.34456 39.2734 1.74298 39.6442C3.06614 40.9768 5.1488 41.6416 7.9909 41.6384C11.4646 41.6384 14.3177 40.6563 16.5504 38.6921C17.5021 37.9138 18.2682 36.9328 18.7927 35.8208C19.3172 34.7088 19.5868 33.4937 19.582 32.2642C19.5851 29.4 18.4546 27.2242 16.1904 25.7368ZM41.6414 3L29.6477 47.7584L29.8467 47.8105L41.8356 3.05211L41.6414 3ZM31.6609 10.2995C33.404 10.2995 34.6672 11.2468 35.4503 13.1416L36.052 10.9105C34.7632 10.0912 33.2637 9.66493 31.7366 9.68368C30.5347 9.66592 29.3437 9.91408 28.2489 10.4103C27.154 10.9065 26.1824 11.6386 25.4035 12.5542C22.5235 15.7531 21.0835 20.13 21.0835 25.6847C21.0835 30.4847 22.1035 34.4321 24.1435 37.5268C25.0811 39.0423 26.384 40.298 27.933 41.1789L28.4493 39.2842C26.8009 36.8463 25.9767 32.2326 25.9767 25.4432C25.9767 15.3505 27.8714 10.3026 31.6609 10.2995ZM67.2253 33.2163L65.6858 31.0516H65.1695L67.0264 33.6V35.67H67.4574V33.6L69.3095 31.0516H68.7932L67.2253 33.2163ZM76.2916 33.3584C76.2916 33.9945 76.0391 34.6047 75.5896 35.0549C75.1401 35.5052 74.5305 35.7588 73.8948 35.76H73.8285C73.5173 35.7557 73.2103 35.6901 72.9242 35.5671C72.6386 35.4441 72.3799 35.2659 72.163 35.0429C71.9465 34.8199 71.7755 34.5564 71.6604 34.2673C71.5453 33.9783 71.4885 33.6694 71.4932 33.3584C71.4932 32.7215 71.7461 32.1106 72.1966 31.6603C72.6466 31.2099 73.2577 30.9568 73.8948 30.9568C74.5314 30.9568 75.1425 31.2099 75.5929 31.6603C76.0429 32.1106 76.2964 32.7215 76.2964 33.3584H76.2916ZM75.8416 33.3158C75.8331 32.9213 75.7076 32.5382 75.4811 32.215C75.2547 31.8918 74.9378 31.643 74.5698 31.5001C74.2022 31.3572 73.8 31.3266 73.4149 31.4122C73.0298 31.4979 72.6788 31.6958 72.406 31.981C72.1336 32.2663 71.9517 32.626 71.8835 33.0147C71.8153 33.4033 71.8641 33.8034 72.0232 34.1644C72.1829 34.5253 72.4458 34.8309 72.7788 35.0425C73.1118 35.254 73.5002 35.3619 73.8948 35.3526H73.9848C74.4954 35.3341 74.9786 35.1138 75.3272 34.7401C75.6763 34.3663 75.8629 33.8695 75.8464 33.3584L75.8416 33.3158ZM74.9227 19.8253C75.4357 19.8269 75.9416 19.9425 76.4044 20.1637C76.8671 20.3848 77.2755 20.7061 77.599 21.1042L78.7974 19.9958C78.3195 19.439 77.724 18.9955 77.0543 18.6972C76.384 18.399 75.6559 18.2536 74.9227 18.2716C74.2908 18.2517 73.6613 18.3564 73.0701 18.5797C72.4789 18.8031 71.9375 19.1407 71.4766 19.5733C71.0157 20.0059 70.6448 20.525 70.3848 21.101C70.1247 21.677 69.9807 22.2986 69.9608 22.9303C69.9409 23.562 70.0456 24.1914 70.2687 24.7826C70.4923 25.3739 70.8296 25.9153 71.2625 26.376C71.695 26.8368 72.2141 27.2078 72.7901 27.4679C73.3661 27.7281 73.9876 27.8722 74.6195 27.8921C74.719 27.8921 74.8185 27.8921 74.9227 27.8921C75.6569 27.908 76.3854 27.7602 77.0557 27.4595C77.7259 27.1588 78.3209 26.7128 78.7974 26.1537L77.599 25.0453C77.2774 25.4467 76.8705 25.7708 76.4072 25.9938C75.9439 26.2168 75.4366 26.3329 74.9227 26.3337C74.0596 26.3337 73.2316 25.9908 72.6215 25.3805C72.0109 24.7702 71.6685 23.9425 71.6685 23.0795C71.6685 22.2164 72.0109 21.3887 72.6215 20.7784C73.2316 20.1681 74.0596 19.8253 74.9227 19.8253ZM85.1353 27.8779C85.0737 27.8779 85.0169 27.8779 84.9553 27.8779C83.6986 27.8529 82.5026 27.333 81.6272 26.4311C80.7518 25.5292 80.2677 24.3183 80.28 23.0615C80.2924 21.8046 80.8006 20.6036 81.6935 19.7193C82.5869 18.8349 83.7929 18.3388 85.05 18.3388C86.3067 18.3388 87.5127 18.8349 88.4061 19.7193C89.299 20.6036 89.8073 21.8046 89.8196 23.0615C89.8319 24.3183 89.3478 25.5292 88.4724 26.4311C87.597 27.333 86.401 27.8529 85.1448 27.8779H85.1353ZM88.38 23.0653C88.3763 22.4225 88.182 21.7952 87.822 21.2625C87.4625 20.7299 86.9528 20.3157 86.3579 20.0723C85.7629 19.8289 85.1093 19.7671 84.4792 19.8948C83.8493 20.0226 83.2714 20.334 82.818 20.7898C82.3647 21.2457 82.0568 21.8255 81.9327 22.4563C81.8086 23.087 81.874 23.7404 82.1208 24.3339C82.368 24.9274 82.7849 25.4345 83.3197 25.7913C83.8545 26.148 84.483 26.3384 85.1258 26.3384C85.2187 26.3432 85.312 26.3432 85.4053 26.3384C85.8146 26.3202 86.2163 26.2214 86.5876 26.0476C86.959 25.8739 87.292 25.6287 87.5686 25.3259C87.8448 25.0232 88.0584 24.669 88.1977 24.2835C88.3369 23.898 88.399 23.4889 88.38 23.0795V23.0653ZM59.0637 34.9074L57.6427 31.3926H57.4058L55.9848 34.9074L54.9048 31.0421H54.4311L55.8521 35.7221H56.1127L57.5337 32.1316L58.9548 35.7221H59.2106L60.5606 31.0421H60.1579L59.0637 34.9074ZM87.8922 32.8421L89.8295 31.0468H89.2658L86.5611 33.5716V31.0279H86.1253V35.6463H86.5611V34.0642L87.5985 33.1168L89.3842 35.6842H89.9053L87.8922 32.8421ZM67.8553 22.7526H62.8627V19.9958H68.6842V18.4658H61.2048V27.6932H62.8627V24.2542H67.8742L67.8553 22.7526ZM81.7011 33.8132L83.0321 35.6558H82.5158L81.2227 33.8558H79.8253V35.6416H79.3895V31.0232H81.4737C81.8503 31.0232 82.2117 31.1729 82.4784 31.4394C82.7446 31.7059 82.8948 32.0673 82.8948 32.4442C82.9038 32.7806 82.7858 33.108 82.5651 33.3616C82.3439 33.6153 82.0355 33.7764 81.7011 33.8132ZM81.4737 33.4579C81.7399 33.4374 81.9877 33.3126 82.1625 33.1104C82.3377 32.9082 82.4254 32.6452 82.4074 32.3785C82.3894 32.1118 82.2667 31.863 82.0658 31.6864C81.8655 31.5097 81.603 31.4195 81.3364 31.4353H79.8064V33.4579H81.3364C81.3818 33.4626 81.4278 33.4626 81.4737 33.4579Z" fill="#121225"/>
</g>
<defs>
<clipPath id="clip0_168_1824">
<rect width="90" height="45" fill="white" transform="translate(0 3)"/>
</clipPath>
</defs>
</svg>
