<svg width="90" height="50" viewBox="0 0 90 50" fill="none" xmlns="http://www.w3.org/2000/svg">
<path d="M48.9629 32.3144H60.5776V30.884H50.9542V26.307H58.1825V24.8597H50.9542V20.6434H60.5776V19.2175H48.9629V32.3144Z" fill="#121225"/>
<path d="M55.0025 17.0979L53.4297 18.8788L58.3663 17.0979H55.0025Z" fill="#121225"/>
<path d="M80.0739 30.884V19.2175H78.259V32.3144H89.9999V30.884H80.0739Z" fill="#121225"/>
<path d="M68.1046 19.2175L61.4995 32.3144H63.7315L65.4217 28.925H73.3426L75.0473 32.3144H77.2565L70.6467 19.2175H68.1046ZM66.2582 27.2825L69.3704 21.0268L72.519 27.2825H66.2582Z" fill="#121225"/>
<path d="M42.6619 26.8379C45.6376 26.0371 45.9267 23.8047 45.912 23.0061C45.7343 20.6661 44.1705 19.2175 41.3614 19.2175H33.1746V32.3144H35.041V26.8209H40.3713L44.292 32.3144H46.6444C46.6444 32.3144 43.8218 28.6165 42.6619 26.8379ZM41.1071 25.2725H35.041V20.7682H41.3186C42.7642 20.7682 43.5765 21.4488 43.869 22.3131C44.0625 22.9052 43.9388 23.6833 43.6181 24.212C43.0939 25.0865 42.0971 25.2725 41.1071 25.2725Z" fill="#121225"/>
<path d="M21.9592 17C16.6907 17 13.0996 20.7455 13.0996 25.2782C13.0996 30.0503 17.0665 33.4192 21.9592 33.4192C26.8485 33.4192 30.8131 30.0979 30.8131 25.2782C30.8131 20.7455 27.1781 17 21.9592 17ZM21.8962 31.7937C18.2511 31.7937 15.2484 28.8399 15.2484 25.2828C15.2484 21.73 18.1094 18.6356 22.0379 18.6356C25.8687 18.6356 28.6846 21.73 28.6846 25.2828C28.6835 28.8399 25.539 31.7937 21.8962 31.7937Z" fill="#121225"/>
<path d="M8.40186 23.8513H9.74852L12.1932 19.2175H10.2266L8.40186 23.8513Z" fill="#121225"/>
<path d="M1.81693 30.884V19.2175H0V32.3144H11.7407V30.884H1.81693Z" fill="#121225"/>
</svg>
