<svg width="90" height="50" viewBox="0 0 90 50" fill="none" xmlns="http://www.w3.org/2000/svg">
<path fill-rule="evenodd" clip-rule="evenodd" d="M89.3945 17.6705C89.2099 17.873 88.9843 18.034 88.7328 18.1429C88.4813 18.2517 88.2095 18.3059 87.9355 18.3019C87.3655 18.3019 86.88 18.0919 86.4764 17.6705C86.2822 17.4688 86.1298 17.2309 86.0278 16.9702C85.9258 16.7095 85.8762 16.4313 85.8818 16.1514C85.8818 15.5623 86.0823 15.0578 86.4846 14.6405C86.8855 14.2232 87.3709 14.0132 87.9368 14.0132C88.5082 14.0132 88.9936 14.2232 89.3945 14.6405C89.7982 15.0551 90 15.561 90 16.1514C90 16.7432 89.7982 17.2492 89.3945 17.6705ZM89.1927 14.8478C89.0327 14.6751 88.8382 14.5379 88.6219 14.4449C88.4056 14.3519 88.1722 14.3052 87.9368 14.3078C87.4473 14.3078 87.0314 14.4878 86.685 14.8478C86.34 15.2092 86.1668 15.6455 86.1668 16.1542C86.1668 16.6669 86.3386 17.1046 86.6823 17.466C87.0273 17.8301 87.4445 18.0087 87.9368 18.0087C88.4277 18.0087 88.8464 17.8301 89.1914 17.466C89.535 17.1046 89.7095 16.6669 89.7095 16.1542C89.7095 15.6455 89.5364 15.2092 89.1927 14.8478ZM88.7073 16.4569C88.7821 16.5646 88.8246 16.6913 88.83 16.8223V16.9942L88.8341 17.1687C88.8341 17.2096 88.8409 17.2532 88.8546 17.2928L88.8682 17.3201H88.4973L88.4905 17.2982C88.4877 17.2901 88.4877 17.2805 88.4864 17.271L88.4768 17.1946V17.0078C88.4768 16.7378 88.4032 16.5578 88.2627 16.4705C88.1768 16.4214 88.0309 16.3942 87.8182 16.3942H87.5059V17.3214H87.105V14.9692H87.8973C88.1768 14.9692 88.3827 14.9964 88.515 15.0523C88.7468 15.1546 88.8641 15.3551 88.8641 15.6496C88.8641 15.8582 88.7905 16.0137 88.6459 16.1146C88.5453 16.1742 88.4334 16.2123 88.3173 16.2264C88.3952 16.2345 88.4705 16.2594 88.5378 16.2994C88.6051 16.3394 88.663 16.3923 88.7073 16.4569ZM88.4795 15.6837C88.4795 15.5132 88.4264 15.3987 88.3255 15.3401C88.2273 15.2787 88.0664 15.2487 87.8455 15.2487H87.5059V16.1051H87.8645C87.9941 16.1105 88.1236 16.0914 88.245 16.0519C88.3181 16.0234 88.3803 15.9723 88.4225 15.9061C88.4646 15.8399 88.4846 15.762 88.4795 15.6837ZM77.805 31.1201H75.7241V15.7164H70.6923V14.0078H82.8341V15.7164H77.805V31.1201ZM60.3859 28.7405C65.3455 30.1819 69.9995 32.2751 74.6986 35.0337V35.5001C67.3814 32.1932 59.1532 29.7428 49.4836 28.9164L52.4277 36.3482H50.1477L47.2418 28.7555C44.3893 28.5905 41.5303 28.5669 38.6755 28.6846L35.7409 36.3482H33.4609L36.4473 28.8073C26.19 29.5082 17.4545 32.0337 9.78136 35.4973V35.0296C14.9018 32.0583 19.9677 29.8423 25.4332 28.3928V23.8314L19.2764 14.0078H21.5632L26.4505 22.1705L31.3364 14.0078H33.6205L27.465 23.8314V27.8937C30.7212 27.1657 34.0304 26.6992 37.3609 26.4987L42.435 13.6819H43.4536L48.5673 26.601C51.9995 26.8873 55.2177 27.411 58.3036 28.1787V15.7151H53.2718V14.0092H65.415V15.7178H60.3859V28.7405ZM42.945 17.5287L39.5509 26.3923C41.8203 26.3159 44.0919 26.3359 46.3595 26.4523L42.945 17.5287ZM11.0591 22.6778H2.08227V31.1201H0V14.0064H2.08227V20.9705H11.0591V14.0078H13.14V31.1214L11.0591 31.1228V22.6778Z" fill="#121225"/>
</svg>
