<svg width="140" height="26" viewBox="0 0 140 26" fill="none" xmlns="http://www.w3.org/2000/svg">
<path d="M4.56338 24.2961C2.06147 24.2961 0.0332814 22.2679 0.0332814 19.766V10.4129C0.0332814 9.08029 1.11357 8 2.44617 8C3.77878 8 4.85907 9.08029 4.85907 10.4129V24.0004C4.85907 24.1637 4.72668 24.2961 4.56338 24.2961ZM2.44617 5.5C1.09519 5.5 0 4.38427 0 3.03328C0 1.6823 1.09519 0.566562 2.44617 0.566562C3.79716 0.566562 4.89235 1.6823 4.89235 3.03328C4.89235 4.38427 3.79716 5.5 2.44617 5.5Z" fill="#121225"/>
<path d="M9.82156 24.2961C9.10058 24.2961 8.51611 23.7117 8.51611 22.9907V8.46171C8.51611 7.74073 9.10058 7.15626 9.82156 7.15626H20.3958C22.3483 7.15626 23.7683 7.64438 24.6558 8.62064C25.5655 9.5747 26.0203 10.8394 26.0203 12.4147V24.2961C23.3551 24.2961 21.1945 22.1355 21.1945 19.4703V12.9805C21.1945 11.6492 20.5289 10.9836 19.1977 10.9836H14.6473C13.9264 10.9836 13.3419 11.5681 13.3419 12.2891V22.9907C13.3419 23.7117 12.7574 24.2961 12.0364 24.2961H9.82156Z" fill="#121225"/>
<path d="M37.6732 24.2961C35.008 24.2961 32.8475 22.1355 32.8475 19.4703V14.2073C30.8794 14.2073 29.284 12.6118 29.284 10.6438V10.3799H32.8475V5.82501C32.8475 4.24969 33.3023 2.985 34.212 2.03094C35.1217 1.05469 36.5417 0.566562 38.472 0.566562H45.7273C45.7273 2.68035 44.0138 4.39391 41.9 4.39391H39.6701C38.3389 4.39391 37.6732 5.07063 37.6732 6.42407V10.3799H43.49C44.211 10.3799 44.7954 10.9644 44.7954 11.6854V12.9018C44.7954 13.6228 44.211 14.2073 43.49 14.2073H37.6732V24.2961Z" fill="#121225"/>
<path d="M47.9041 24.2961V0.5C50.5693 0.5 52.7299 2.66058 52.7299 5.32579V19.4703C52.7299 22.1355 50.5693 24.2961 47.9041 24.2961Z" fill="#121225"/>
<path d="M103.094 24.2961C101.631 24.2961 100.431 23.1105 100.431 21.6481C100.431 20.1856 101.631 19 103.094 19C104.556 19 105.756 20.1856 105.756 21.6481C105.756 23.1105 104.556 24.2961 103.094 24.2961Z" fill="#121225"/>
<path d="M114.189 24.2961C111.688 24.2961 109.662 22.2659 109.667 19.7649L109.686 10.408C109.689 9.07729 110.768 8 112.099 8C113.433 8 114.514 9.08329 114.512 10.4178L114.484 24.0016C114.484 24.1643 114.352 24.2961 114.189 24.2961ZM112.071 5.5C110.72 5.5 109.624 4.38427 109.624 3.03328C109.624 1.6823 110.72 0.566562 112.071 0.566562C113.421 0.566562 114.517 1.6823 114.517 3.03328C114.517 4.38427 113.421 5.5 112.071 5.5Z" fill="#121225"/>
<path d="M126.927 24.4625C123.954 24.4625 121.635 23.7303 119.971 22.266C118.307 20.7794 117.475 18.605 117.475 15.7428C117.475 12.8585 118.307 10.6841 119.971 9.2197C121.635 7.73313 123.954 6.98985 126.927 6.98985H130.457C133.43 6.98985 135.748 7.73313 137.413 9.2197C139.077 10.6841 139.909 12.8585 139.909 15.7428C139.909 18.605 139.077 20.7794 137.413 22.266C135.748 23.7303 133.43 24.4625 130.457 24.4625H126.927ZM126.927 20.6352H130.457C131.899 20.6352 132.997 20.2358 133.752 19.4371C134.528 18.6383 134.916 17.4069 134.916 15.7428C134.916 14.0566 134.528 12.8141 133.752 12.0153C132.997 11.2166 131.899 10.8172 130.457 10.8172H126.927C125.485 10.8172 124.375 11.2166 123.599 12.0153C122.844 12.8141 122.467 14.0566 122.467 15.7428C122.467 17.4069 122.844 18.6383 123.599 19.4371C124.375 20.2358 125.485 20.6352 126.927 20.6352Z" fill="#121225"/>
<path fill-rule="evenodd" clip-rule="evenodd" d="M66.803 24.4999C63.8299 24.4999 60.2058 23.7677 58.5418 22.3033C56.8777 20.8168 56.0457 18.6424 56.0457 15.7802C56.0457 12.8958 56.8777 10.7214 58.5418 9.25706C60.2058 7.7705 63.8299 7.02718 66.803 7.02721C72.0374 7.02727 75.1477 9.34088 77.6008 12.0671C80.0327 9.34334 83.1192 7.02732 88.3683 7.02732C91.3414 7.02732 94.9655 7.7706 96.6295 9.25717C98.2936 10.7215 99.1256 12.8959 99.1256 15.7803C99.1256 18.6425 98.2936 20.8169 96.6295 22.3034C94.9655 23.7678 91.3414 24.5 88.3683 24.5C84.8052 24.5 82.2386 23.4328 80.1967 21.8953L82.9774 18.429C82.1321 17.6453 81.3541 16.717 80.5744 15.7336C80.3137 16.0622 80.0531 16.3975 79.7903 16.7357L79.7845 16.7431C79.0857 17.6425 78.3696 18.564 77.5857 19.4434C75.1515 22.1744 72.0628 24.4999 66.803 24.4999ZM62.1696 12.0525C62.9461 11.2537 65.3609 10.8543 66.8031 10.8543C69.1432 10.8544 70.8628 11.814 72.364 13.2242L74.9747 9.62346C75.9511 10.3528 76.8101 11.1883 77.6008 12.0671C76.8109 12.9516 76.0902 13.8795 75.3868 14.7847C75.13 15.1151 74.8756 15.4424 74.621 15.7637C72.5075 18.4303 70.3803 20.6723 66.8031 20.6723C65.3609 20.6723 62.9461 20.2729 62.1696 19.4742C61.4152 18.6754 61.038 17.444 61.038 15.78C61.038 14.0937 61.4152 12.8512 62.1696 12.0525ZM92.9687 19.4743C92.2143 20.273 89.8671 20.7344 88.4249 20.7344C84.8576 20.7344 82.7228 18.443 80.5744 15.7336C82.6801 13.0802 84.8047 10.8544 88.3684 10.8544C89.8106 10.8544 92.2143 11.2538 92.9687 12.0526C93.7453 12.8513 94.1336 14.0938 94.1336 15.7801C94.1336 17.4441 93.7453 18.6755 92.9687 19.4743Z" fill="url(#paint0_linear_168_2276)"/>
<path fill-rule="evenodd" clip-rule="evenodd" d="M66.803 24.4999C63.8299 24.4999 60.2058 23.7677 58.5418 22.3033C56.8777 20.8168 56.0457 18.6424 56.0457 15.7802C56.0457 12.8958 56.8777 10.7214 58.5418 9.25706C60.2058 7.7705 63.8299 7.02718 66.803 7.02721C72.0374 7.02727 75.1477 9.34088 77.6008 12.0671C80.0327 9.34334 83.1192 7.02732 88.3683 7.02732C91.3414 7.02732 94.9655 7.7706 96.6295 9.25717C98.2936 10.7215 99.1256 12.8959 99.1256 15.7803C99.1256 18.6425 98.2936 20.8169 96.6295 22.3034C94.9655 23.7678 91.3414 24.5 88.3683 24.5C84.8052 24.5 82.2386 23.4328 80.1967 21.8953L82.9774 18.429C82.1321 17.6453 81.3541 16.717 80.5744 15.7336C80.3137 16.0622 80.0531 16.3975 79.7903 16.7357L79.7845 16.7431C79.0857 17.6425 78.3696 18.564 77.5857 19.4434C75.1515 22.1744 72.0628 24.4999 66.803 24.4999ZM62.1696 12.0525C62.9461 11.2537 65.3609 10.8543 66.8031 10.8543C69.1432 10.8544 70.8628 11.814 72.364 13.2242L74.9747 9.62346C75.9511 10.3528 76.8101 11.1883 77.6008 12.0671C76.8109 12.9516 76.0902 13.8795 75.3868 14.7847C75.13 15.1151 74.8756 15.4424 74.621 15.7637C72.5075 18.4303 70.3803 20.6723 66.8031 20.6723C65.3609 20.6723 62.9461 20.2729 62.1696 19.4742C61.4152 18.6754 61.038 17.444 61.038 15.78C61.038 14.0937 61.4152 12.8512 62.1696 12.0525ZM92.9687 19.4743C92.2143 20.273 89.8671 20.7344 88.4249 20.7344C84.8576 20.7344 82.7228 18.443 80.5744 15.7336C82.6801 13.0802 84.8047 10.8544 88.3684 10.8544C89.8106 10.8544 92.2143 11.2538 92.9687 12.0526C93.7453 12.8513 94.1336 14.0938 94.1336 15.7801C94.1336 17.4441 93.7453 18.6755 92.9687 19.4743Z" fill="url(#paint1_radial_168_2276)"/>
<path fill-rule="evenodd" clip-rule="evenodd" d="M66.803 24.4999C63.8299 24.4999 60.2058 23.7677 58.5418 22.3033C56.8777 20.8168 56.0457 18.6424 56.0457 15.7802C56.0457 12.8958 56.8777 10.7214 58.5418 9.25706C60.2058 7.7705 63.8299 7.02718 66.803 7.02721C72.0374 7.02727 75.1477 9.34088 77.6008 12.0671C80.0327 9.34334 83.1192 7.02732 88.3683 7.02732C91.3414 7.02732 94.9655 7.7706 96.6295 9.25717C98.2936 10.7215 99.1256 12.8959 99.1256 15.7803C99.1256 18.6425 98.2936 20.8169 96.6295 22.3034C94.9655 23.7678 91.3414 24.5 88.3683 24.5C84.8052 24.5 82.2386 23.4328 80.1967 21.8953L82.9774 18.429C82.1321 17.6453 81.3541 16.717 80.5744 15.7336C80.3137 16.0622 80.0531 16.3975 79.7903 16.7357L79.7845 16.7431C79.0857 17.6425 78.3696 18.564 77.5857 19.4434C75.1515 22.1744 72.0628 24.4999 66.803 24.4999ZM62.1696 12.0525C62.9461 11.2537 65.3609 10.8543 66.8031 10.8543C69.1432 10.8544 70.8628 11.814 72.364 13.2242L74.9747 9.62346C75.9511 10.3528 76.8101 11.1883 77.6008 12.0671C76.8109 12.9516 76.0902 13.8795 75.3868 14.7847C75.13 15.1151 74.8756 15.4424 74.621 15.7637C72.5075 18.4303 70.3803 20.6723 66.8031 20.6723C65.3609 20.6723 62.9461 20.2729 62.1696 19.4742C61.4152 18.6754 61.038 17.444 61.038 15.78C61.038 14.0937 61.4152 12.8512 62.1696 12.0525ZM92.9687 19.4743C92.2143 20.273 89.8671 20.7344 88.4249 20.7344C84.8576 20.7344 82.7228 18.443 80.5744 15.7336C82.6801 13.0802 84.8047 10.8544 88.3684 10.8544C89.8106 10.8544 92.2143 11.2538 92.9687 12.0526C93.7453 12.8513 94.1336 14.0938 94.1336 15.7801C94.1336 17.4441 93.7453 18.6755 92.9687 19.4743Z" fill="url(#paint2_radial_168_2276)"/>
<defs>
<linearGradient id="paint0_linear_168_2276" x1="99.1256" y1="10.2908" x2="59.962" y2="20.0817" gradientUnits="userSpaceOnUse">
<stop stop-color="#9C38CB"/>
<stop offset="1" stop-color="#7EBEFF"/>
</linearGradient>
<radialGradient id="paint1_radial_168_2276" cx="0" cy="0" r="1" gradientUnits="userSpaceOnUse" gradientTransform="translate(56 26.5) rotate(-45) scale(14.1421 15.3594)">
<stop stop-color="#76EBF0"/>
<stop offset="1" stop-color="#76EBF0" stop-opacity="0"/>
</radialGradient>
<radialGradient id="paint2_radial_168_2276" cx="0" cy="0" r="1" gradientUnits="userSpaceOnUse" gradientTransform="translate(100.5 6.5) rotate(140.711) scale(14.2127 15.436)">
<stop stop-color="#E56FFE"/>
<stop offset="1" stop-color="#E56FFE" stop-opacity="0"/>
</radialGradient>
</defs>
</svg>
