<svg width="24" height="24" viewBox="0 0 24 24" fill="none" xmlns="http://www.w3.org/2000/svg">
<path fill-rule="evenodd" clip-rule="evenodd" d="M5.01801 2.3999H18.9817C19.6762 2.3999 20.3421 2.67573 20.8331 3.16673C21.324 3.65772 21.5999 4.32365 21.5999 5.01801V18.9817C21.5999 19.3257 21.5322 19.6661 21.4006 19.9837C21.2691 20.3014 21.0762 20.59 20.8331 20.8331C20.59 21.0762 20.3014 21.2691 19.9837 21.4006C19.6661 21.5322 19.3257 21.5999 18.9817 21.5999H5.01801C4.6742 21.5999 4.33375 21.5322 4.01611 21.4006C3.69846 21.2691 3.40985 21.0762 3.16673 20.8331C2.92362 20.59 2.73077 20.3014 2.5992 19.9837C2.46762 19.6661 2.3999 19.3257 2.3999 18.9817V5.01801C2.3999 4.32365 2.67573 3.65772 3.16673 3.16673C3.65772 2.67573 4.32365 2.3999 5.01801 2.3999ZM9.14853 8.26281C9.23078 8.06425 9.27312 7.85143 9.27312 7.63651C9.27312 7.20246 9.10069 6.78618 8.79377 6.47925C8.48684 6.17233 8.07056 5.9999 7.63651 5.9999C7.20246 5.9999 6.78618 6.17233 6.47925 6.47925C6.17233 6.78618 5.9999 7.20246 5.9999 7.63651C5.9999 7.85143 6.04224 8.06425 6.12449 8.26281C6.20673 8.46138 6.32729 8.6418 6.47925 8.79377C6.63122 8.94573 6.81164 9.06629 7.01021 9.14853C7.20877 9.23078 7.42159 9.27312 7.63651 9.27312C7.85143 9.27312 8.06425 9.23078 8.26281 9.14853C8.46138 9.06629 8.6418 8.94573 8.79377 8.79377C8.94573 8.6418 9.06629 8.46138 9.14853 8.26281ZM8.90102 17.5932V10.3637C8.90113 10.2562 8.85855 10.1531 8.78265 10.077C8.70677 10.0009 8.60377 9.95799 8.49629 9.95779H6.77136C6.66378 9.95789 6.56064 10.0007 6.48459 10.0768C6.40856 10.1529 6.36585 10.2561 6.36585 10.3637V17.5944C6.3657 17.6477 6.37609 17.7005 6.39641 17.7498C6.41672 17.7991 6.44658 17.8439 6.48426 17.8816C6.52194 17.9193 6.5667 17.9493 6.61597 17.9695C6.66524 17.9899 6.71804 18.0004 6.77136 18.0003H8.49629C8.5496 18.0001 8.60238 17.9896 8.65159 17.9691C8.70079 17.9485 8.74548 17.9185 8.78306 17.8807C8.82066 17.8429 8.85043 17.7981 8.87067 17.7487C8.89091 17.6994 8.90123 17.6465 8.90102 17.5932ZM17.9173 17.6271V14.1276V14.1004C17.9175 12.5742 17.9176 9.83798 14.9698 9.83798C13.6312 9.83798 13.0041 10.328 12.5809 10.9627V10.3322C12.5809 10.2832 12.5713 10.2346 12.5526 10.1893C12.5339 10.144 12.5063 10.1028 12.4717 10.0682C12.4371 10.0335 12.3959 10.006 12.3505 9.98725C12.3052 9.96851 12.2567 9.95889 12.2076 9.95894H10.4163C10.3673 9.95894 10.3189 9.9686 10.2737 9.98738C10.2285 10.0062 10.1874 10.0337 10.1529 10.0684C10.1184 10.103 10.091 10.1442 10.0724 10.1895C10.0538 10.2348 10.0444 10.2832 10.0446 10.3322V17.6271C10.0444 17.676 10.0539 17.7245 10.0725 17.7697C10.0911 17.815 10.1185 17.8561 10.153 17.8907C10.1875 17.9254 10.2286 17.953 10.2737 17.9717C10.3189 17.9905 10.3674 18.0003 10.4163 18.0003H12.2076C12.3057 17.9988 12.3991 17.9587 12.4679 17.8889C12.5367 17.8191 12.5752 17.725 12.5752 17.6271V13.7152C12.6213 13.1891 12.8531 12.0187 13.9936 12.0187C15.3568 12.0187 15.3299 13.4866 15.3186 14.1053C15.3177 14.1545 15.3169 14.1983 15.3169 14.2355V17.6271C15.3167 17.676 15.3263 17.7246 15.3449 17.77C15.3636 17.8153 15.3911 17.8565 15.4258 17.8912C15.4603 17.9259 15.5015 17.9533 15.5469 17.9721C15.5922 17.9908 15.6407 18.0004 15.6898 18.0003H17.5445C17.5935 18.0004 17.6421 17.9908 17.6874 17.9721C17.7327 17.9533 17.7738 17.9259 17.8085 17.8912C17.8432 17.8565 17.8705 17.8153 17.8893 17.77C17.908 17.7246 17.9175 17.676 17.9173 17.6271Z" fill="#121225"/>
</svg>
