<svg width="90" height="50" viewBox="0 0 90 50" fill="none" xmlns="http://www.w3.org/2000/svg">
<g clip-path="url(#clip0_168_1639)">
<path d="M62.1786 32.5933C62.1013 32.8341 61.9444 33.0415 61.7336 33.1812C61.5228 33.321 61.2706 33.3849 61.0188 33.3624C60.0243 33.272 58.5353 33.139 57.9162 33.0759C57.6746 33.0509 57.4479 32.9476 57.2707 32.7816C57.0936 32.6156 56.9758 32.3962 56.9354 32.1569C56.3384 28.629 54.0357 15.0121 53.7884 13.5713C53.7393 13.2825 53.8065 12.986 53.9751 12.7464C54.1439 12.5069 54.4004 12.3437 54.689 12.2925C55.6288 12.122 56.9235 11.8952 57.476 11.8048C57.7655 11.7584 58.0617 11.8279 58.3003 11.9984C58.5388 12.1689 58.7005 12.4265 58.7502 12.7154L60.4218 22.4668L63.3828 13.4588C63.4565 13.2355 63.599 13.0412 63.7899 12.9037C63.9807 12.7662 64.2101 12.6925 64.4454 12.6932C65.4244 12.6932 67.021 12.7085 67.6384 12.7154C67.8673 12.7172 68.0901 12.7898 68.276 12.9232C68.462 13.0566 68.6022 13.2443 68.6771 13.4605C69.6255 16.1886 72.885 25.599 72.8833 25.5666C72.8833 25.5666 74.2479 20.6372 74.8243 18.5246C75.1229 17.4334 75.8119 14.944 76.206 13.5099C76.2839 13.2296 76.4686 12.9908 76.7204 12.8449C76.9723 12.6989 77.2712 12.6573 77.5535 12.729C78.466 12.9609 79.7298 13.2866 80.308 13.4537C80.5899 13.5339 80.8285 13.7224 80.9717 13.9781C81.1149 14.2337 81.1511 14.5356 81.0722 14.8177C80.5315 16.794 79.3666 21.0192 78.8668 22.8897C78.0839 25.7883 76.4789 31.7561 75.8955 33.8943C75.8342 34.1215 75.7019 34.3232 75.5177 34.4699C75.3335 34.6165 75.1073 34.7004 74.8721 34.7094C73.8879 34.7418 72.2829 34.7929 71.6313 34.8065C71.3975 34.8096 71.1687 34.7394 70.9769 34.6057C70.7851 34.4721 70.6399 34.2817 70.5619 34.0614C69.0814 30.0118 65.9276 21.2732 65.9276 21.2732C65.9276 21.2732 63.0689 29.9249 62.1786 32.5933Z" fill="#121225"/>
<path d="M41.3713 34.3843C36.9025 34.195 33.4297 32.691 31.0674 29.1496C29.3993 26.6499 29.0103 23.8434 29.5578 20.931C30.2845 16.9923 32.6725 14.3392 36.3226 12.8404C39.5837 11.5019 42.8723 11.5939 46.1199 12.9478C50.2135 14.6529 52.784 18.5745 52.8147 23.0504C52.8538 28.7676 48.97 32.8719 43.9093 34.004C42.9763 34.212 42.0143 34.2888 41.3713 34.3843ZM41.0677 16.7655C37.3425 16.7843 34.7039 19.4493 34.7277 23.1715C34.7517 26.8545 37.4415 29.5213 41.1137 29.5025C44.786 29.4838 47.4486 26.7744 47.4367 23.0539C47.4145 19.4101 44.7127 16.7467 41.0592 16.7655H41.0677Z" fill="#121225"/>
<path d="M8.9978 36.7621C9.19737 31.5275 11.5188 26.743 16.0593 23.0941C17.1989 22.1438 18.4505 21.3364 19.7862 20.6899L19.3751 18.8143C17.8354 19.7062 16.1326 20.2808 14.3672 20.5041C14.0959 20.5381 13.8216 20.471 13.5966 20.3156C13.3716 20.1602 13.2118 19.9275 13.1477 19.6618L12.5422 17.116C12.5053 16.9666 12.4999 16.8111 12.5263 16.6596C12.5527 16.5079 12.6103 16.3634 12.6954 16.2351C12.7805 16.107 12.8914 15.9977 13.0209 15.9146C13.1504 15.8314 13.2958 15.776 13.4479 15.752C16.2452 15.3001 17.2293 14.6369 20.8436 12.7493C21.0502 12.6412 21.2785 12.5811 21.5116 12.5735C21.7445 12.5658 21.9763 12.6109 22.1895 12.7053C22.4026 12.7998 22.5917 12.9411 22.7426 13.1187C22.8935 13.2964 23.0024 13.5058 23.061 13.7314L24.4375 19.0172C24.4375 19.0172 26.1073 18.6234 26.718 18.5056C26.8516 18.4798 26.9894 18.4825 27.1219 18.5136C27.2545 18.5447 27.379 18.6034 27.4873 18.686C27.5956 18.7687 27.6851 18.8732 27.7501 18.993C27.815 19.1126 27.8539 19.2446 27.8642 19.3804C27.9426 20.4034 28.0552 21.8648 28.1064 22.4206C28.1275 22.6485 28.0669 22.8766 27.9353 23.064C27.8038 23.2514 27.61 23.386 27.3883 23.4436L25.5735 23.9176C25.5735 23.9176 26.2643 28.9835 26.4263 31.3059C26.6446 34.404 26.4825 37.4885 25.4745 40.4656C24.1237 44.464 21.2103 46.9552 16.8319 46.9722C13.9101 46.9841 11.8394 45.4905 10.3999 43.0403C9.36793 41.279 9.00121 39.3607 8.9978 36.7621ZM20.9204 25.7847C20.9204 25.7847 20.5452 26.0149 20.1852 26.269C17.2976 28.2486 15.3378 30.9 14.4389 34.2949C13.9869 35.9999 13.7873 37.7222 14.3024 39.4596C14.7186 40.8663 15.7045 41.7325 17.0451 41.8621C18.292 41.9832 19.4876 41.2772 20.1512 40.0802C20.7294 39.0351 21.0228 37.9062 21.2103 36.7451C21.6044 34.288 21.5156 31.8208 21.2838 29.3586C21.1779 28.24 20.9204 25.7847 20.9204 25.7847Z" fill="#121225"/>
<path d="M22.8675 7.06659C22.8742 7.75286 22.6768 8.42565 22.3004 8.99958C21.924 9.5735 21.3854 10.0227 20.7532 10.2901C20.1209 10.5575 19.4234 10.631 18.7492 10.5014C18.075 10.3718 17.4546 10.0449 16.9666 9.56212C16.4786 9.07936 16.1452 8.46255 16.0085 7.78998C15.8719 7.11741 15.9382 6.41942 16.1991 5.78462C16.46 5.14981 16.9037 4.60682 17.4739 4.22455C18.0441 3.8423 18.715 3.63801 19.4015 3.63764C19.8557 3.63037 20.3067 3.71383 20.7281 3.88313C21.1496 4.05243 21.533 4.30415 21.8558 4.62354C22.1786 4.94292 22.4344 5.32353 22.6081 5.74306C22.7818 6.16258 22.8701 6.61255 22.8675 7.06659Z" fill="#121225"/>
</g>
<defs>
<clipPath id="clip0_168_1639">
<rect width="73" height="44" fill="white" transform="translate(9 3)"/>
</clipPath>
</defs>
</svg>
