<svg width="90" height="50" viewBox="0 0 90 50" fill="none" xmlns="http://www.w3.org/2000/svg">
<path d="M75.7406 28.7204C75.7086 28.5526 75.7086 28.4088 76.5595 28.1453C77.4012 27.8897 79.4399 27.1948 80.6825 26.5161C81.9263 25.8292 82.1273 25.7334 82.4243 25.925C82.7132 26.1167 82.6321 26.5799 82.6321 26.9154V30.2618C83.0901 29.5189 84.5817 27.0512 85.7615 26.3243C86.6924 25.7494 87.0213 25.7014 87.5992 25.6934C88.289 25.6774 89.9257 26.1087 89.9976 27.8259C90.0536 29.1676 89.0588 29.7107 88.4249 29.6228C87.919 29.5509 87.5501 29.0877 87.2531 28.6166C86.9493 28.1453 86.4674 27.8577 85.9865 28.0255C85.5046 28.1932 82.8012 29.9343 82.6481 32.4181C82.5362 34.247 82.6481 39.9494 82.6481 39.9494C82.6481 40.812 82.977 41.1474 83.3711 41.379C83.756 41.6107 85.1756 41.6265 85.5765 41.6825C85.9785 41.7383 85.9625 41.8343 85.9625 41.954C85.9625 42.0738 85.9625 42.1377 85.6005 42.1377H76.0855C75.7806 42.1377 75.6606 42.0818 75.6606 41.8981C75.6606 41.6505 76.0615 41.6985 76.3665 41.6505C76.6714 41.6107 78.2761 41.7383 78.7409 40.9398C79.0779 40.4126 79.0379 39.566 79.0379 39.566L78.9899 29.5509C78.9899 28.7442 78.7489 28.6244 78.5251 28.4967C78.3001 28.3689 77.9232 28.297 77.1374 28.5686C76.3905 28.8002 75.8776 29.0318 75.7406 28.7204Z" fill="#121225"/>
<path d="M42.4876 28.723C42.3592 28.4754 42.6 28.3157 43.3059 28.1319C44.0921 27.9243 45.8171 27.4052 47.181 26.6305C48.5448 25.8638 48.7856 25.784 49.0743 25.8718C49.3631 25.9676 49.339 26.4787 49.339 26.8861V39.8482C49.339 40.575 49.4353 40.8785 49.7644 41.182C50.0933 41.4855 50.9276 41.6611 52.0027 41.6611C52.4921 41.6611 52.6364 41.7171 52.6364 41.9247C52.6364 42.1324 52.484 42.1324 52.2915 42.1324H42.8486C42.5599 42.1324 42.4876 42.0046 42.4876 41.8848C42.4876 41.7331 42.616 41.6373 43.0573 41.6373C43.4263 41.6373 45.1351 41.7651 45.5203 40.8785C45.6727 40.5431 45.7449 40.0719 45.7449 39.6326V29.3539C45.7449 28.5712 45.1351 28.2278 44.4372 28.3955C43.6109 28.5872 42.656 29.0504 42.4876 28.723Z" fill="#121225"/>
<path d="M47.294 19.7704C48.5776 19.7704 49.6125 18.7321 49.6125 17.4623C49.6125 16.1844 48.5696 15.1542 47.294 15.1542C46.0183 15.1542 44.9753 16.1844 44.9753 17.4623C44.9833 18.7321 46.0183 19.7704 47.294 19.7704Z" fill="#121225"/>
<path d="M58.6407 34.4562C59.1061 38.6571 61.6171 41.9316 64.7381 41.3805C67.8589 40.8294 69.4234 37.8664 69.0463 33.1144C68.6611 28.2826 66.2624 25.8706 63.0291 26.1581C59.6917 26.4617 58.1674 30.2472 58.6407 34.4562ZM61.7295 25.4154C65.7489 24.6647 71.4691 25.5512 72.7689 31.8126C74.0685 38.0741 69.7362 41.4125 65.9816 42.227C62.3071 43.0177 56.0734 42.4587 54.9421 35.718C53.9314 29.6722 58.3358 26.0463 61.7295 25.4154Z" fill="#121225"/>
<path d="M14.1281 41.1186H16.4627C25.1354 41.1186 27.462 40.3199 30.5186 36.2788C33.5754 32.2375 33.9364 26.4473 33.9364 24.4826C33.9364 22.5178 33.4149 17.6062 30.3582 13.4452C27.3015 9.28424 22.2071 8.20596 17.7463 8.20596H14.112C13.2536 8.20596 13.2055 8.58937 13.2055 9.18841V40.3519C13.1975 41.0386 13.4382 41.1186 14.1281 41.1186ZM0 41.8453C0 41.5339 0.409107 41.4779 0.794229 41.4619C5.2068 41.3342 6.03312 41.1824 6.53851 40.6633C6.81136 40.3758 7.22047 40.1441 7.22047 38.1076V10.0828C7.22047 7.56706 4.14772 7.96646 1.98158 7.74283C1.21944 7.67088 1.15525 7.56706 1.15525 7.34344C1.15525 7.1278 1.29962 7.01599 1.70084 7H19.4954C39.0549 7 40.0577 21.232 40.0577 25.0337C40.0577 33.188 34.6424 42.1648 23.3142 42.1648H0.569573C0.288841 42.1648 0 42.1328 0 41.8453Z" fill="#121225"/>
</svg>
