<svg width="90" height="50" viewBox="0 0 90 50" fill="none" xmlns="http://www.w3.org/2000/svg">
<path fill-rule="evenodd" clip-rule="evenodd" d="M89.3945 17.6704C89.2099 17.8729 88.9843 18.0339 88.7328 18.1427C88.4813 18.2516 88.2095 18.3058 87.9355 18.3018C87.3655 18.3018 86.88 18.0918 86.4764 17.6704C86.2822 17.4687 86.1298 17.2307 86.0278 16.9701C85.9258 16.7094 85.8762 16.4312 85.8818 16.1513C85.8818 15.5622 86.0823 15.0577 86.4846 14.6404C86.8855 14.2231 87.3709 14.0131 87.9368 14.0131C88.5082 14.0131 88.9936 14.2231 89.3945 14.6404C89.7982 15.0549 90 15.5609 90 16.1513C90 16.7431 89.7982 17.249 89.3945 17.6704ZM89.1927 14.8477C89.0327 14.675 88.8382 14.5377 88.6219 14.4447C88.4056 14.3517 88.1722 14.305 87.9368 14.3077C87.4473 14.3077 87.0314 14.4877 86.685 14.8477C86.34 15.209 86.1668 15.6454 86.1668 16.154C86.1668 16.6668 86.3386 17.1045 86.6823 17.4659C87.0273 17.8299 87.4445 18.0086 87.9368 18.0086C88.4277 18.0086 88.8464 17.8299 89.1914 17.4659C89.535 17.1045 89.7095 16.6668 89.7095 16.154C89.7095 15.6454 89.5364 15.209 89.1927 14.8477ZM88.7073 16.4568C88.7821 16.5644 88.8246 16.6912 88.83 16.8222V16.994L88.8341 17.1686C88.8341 17.2095 88.8409 17.2531 88.8546 17.2927L88.8682 17.3199H88.4973L88.4905 17.2981C88.4877 17.2899 88.4877 17.2804 88.4864 17.2709L88.4768 17.1945V17.0077C88.4768 16.7377 88.4032 16.5577 88.2627 16.4704C88.1768 16.4213 88.0309 16.394 87.8182 16.394H87.5059V17.3213H87.105V14.969H87.8973C88.1768 14.969 88.3827 14.9963 88.515 15.0522C88.7468 15.1545 88.8641 15.3549 88.8641 15.6495C88.8641 15.8581 88.7905 16.0136 88.6459 16.1145C88.5453 16.1741 88.4334 16.2121 88.3173 16.2263C88.3952 16.2343 88.4705 16.2592 88.5378 16.2993C88.6051 16.3393 88.663 16.3921 88.7073 16.4568ZM88.4795 15.6836C88.4795 15.5131 88.4264 15.3986 88.3255 15.3399C88.2273 15.2786 88.0664 15.2486 87.8455 15.2486H87.5059V16.1049H87.8645C87.9941 16.1104 88.1236 16.0913 88.245 16.0518C88.3181 16.0233 88.3803 15.9722 88.4225 15.906C88.4646 15.8398 88.4846 15.7619 88.4795 15.6836ZM77.805 31.1199H75.7241V15.7163H70.6923V14.0077H82.8341V15.7163H77.805V31.1199ZM60.3859 28.7404C65.3455 30.1818 69.9995 32.2749 74.6986 35.0336V35.4999C67.3814 32.1931 59.1532 29.7427 49.4836 28.9163L52.4277 36.3481H50.1477L47.2418 28.7554C44.3893 28.5904 41.5303 28.5667 38.6755 28.6845L35.7409 36.3481H33.4609L36.4473 28.8072C26.19 29.5081 17.4545 32.0336 9.78136 35.4972V35.0295C14.9018 32.0581 19.9677 29.8422 25.4332 28.3927V23.8313L19.2764 14.0077H21.5632L26.4505 22.1704L31.3364 14.0077H33.6205L27.465 23.8313V27.8936C30.7212 27.1656 34.0304 26.6991 37.3609 26.4986L42.435 13.6818H43.4536L48.5673 26.6009C51.9995 26.8872 55.2177 27.4109 58.3036 28.1786V15.7149H53.2718V14.009H65.415V15.7177H60.3859V28.7404ZM42.945 17.5286L39.5509 26.3922C41.8203 26.3158 44.0919 26.3358 46.3595 26.4522L42.945 17.5286ZM11.0591 22.6777H2.08227V31.1199H0V14.0063H2.08227V20.9704H11.0591V14.0077H13.14V31.1213L11.0591 31.1227V22.6777Z" fill="#121225"/>
</svg>
