<svg width="90" height="50" viewBox="0 0 90 50" fill="none" xmlns="http://www.w3.org/2000/svg">
<g clip-path="url(#clip0_168_1636)">
<path d="M68.04 11.5275C68.04 8.80327 67.4619 7.58718 66.0895 7.58718C64.7171 7.58718 64.139 8.80327 64.139 11.5275C64.139 14.2547 64.7171 15.4755 66.0895 15.4755C67.4619 15.4755 68.04 14.2537 68.04 11.5275ZM71.8667 4.35891V18.6981H68.619L68.4 17.6958C67.7552 18.6981 66.6019 19.057 65.2952 19.057C62.0429 19.057 60.3143 16.4759 60.3143 11.5275C60.3143 6.72618 62.119 4 65.2952 4C66.6019 4 67.7552 4.43241 68.4 5.36309L68.619 4.35795L71.8667 4.35891ZM55.5133 4C54.2152 4 53.2019 4.43241 52.4086 5.36309L52.1886 4.35795H48.9419V18.6981H52.7695V9.73873C52.7695 8.30405 53.3486 7.58718 54.2171 7.58718C55.1533 7.58718 55.5143 8.15991 55.5143 9.73873V18.6981H59.3381V8.15991C59.3371 5.36405 58.1095 4 55.5133 4ZM40.1705 9.88H44.1419C44.1419 8.30404 43.4181 7.444 42.2638 7.444C41.0371 7.444 40.3876 8.23245 40.1705 9.88ZM44.2086 13.9702H47.8276C47.6791 17.1928 45.7295 19.057 42.2638 19.057C38.4343 19.057 36.2676 16.4043 36.2676 11.5991C36.2676 10.1673 36.4848 8.87677 36.9181 7.87259C36.7159 7.77308 36.4928 7.72396 36.2676 7.72941C35.3333 7.72941 34.2476 8.51786 34.2476 10.5969V18.6981H30.4181V4.35795H33.6657L33.8895 5.36309C34.8229 4.35795 35.9048 4 37.7876 4V6.22409C38.8733 4.78845 40.3876 4 42.2638 4C45.5886 4 47.6057 6.22409 47.8952 10.0203C47.9724 10.9558 47.9724 11.5991 47.9724 12.6043H40.0962C40.1705 14.6117 40.9629 15.6149 42.339 15.6149C43.4181 15.6149 44.0695 15.0422 44.2086 13.9702ZM25.1295 11.5275C25.1295 8.80327 24.5505 7.58718 23.1829 7.58718C21.8114 7.58718 21.2324 8.80327 21.2324 11.5275C21.2324 14.2547 21.8105 15.4755 23.1829 15.4755C24.5505 15.4755 25.1295 14.2537 25.1295 11.5275ZM28.9581 4.35891V18.6981H25.7095L25.4933 17.6958C24.8457 18.6981 23.6886 19.057 22.3867 19.057C19.139 19.057 17.4038 16.4759 17.4038 11.5275C17.4038 6.72618 19.2048 4 22.3867 4C23.6886 4 24.8457 4.43241 25.4933 5.36309L25.7095 4.35795H28.9571L28.9581 4.35891ZM60.8895 21.4863C59.2381 21.4863 57.9257 21.9178 56.3676 22.8771L47.0981 28.5824L60.8886 37.0779L74.679 28.5824L65.4076 22.8771C63.8495 21.9178 62.5457 21.4863 60.8895 21.4863ZM28.7886 21.4863C27.1352 21.4863 25.8295 21.9178 24.2657 22.8771L15 28.5824L28.7886 37.0779L42.5771 28.5824L33.3114 22.8771C31.7514 21.9178 30.4419 21.4863 28.7886 21.4863ZM40.3162 44.1797L31.0505 38.4725L44.841 29.9741L58.6267 38.4725L49.36 44.1797C47.7981 45.138 46.72 45.8024 44.84 45.8024C42.9562 45.8024 41.88 45.138 40.3162 44.1797Z" fill="#121225"/>
</g>
<defs>
<clipPath id="clip0_168_1636">
<rect width="60" height="42" fill="white" transform="translate(15 4)"/>
</clipPath>
</defs>
</svg>
