<svg width="90" height="50" viewBox="0 0 90 50" fill="none" xmlns="http://www.w3.org/2000/svg">
<mask id="mask0_168_1670" style="mask-type:luminance" maskUnits="userSpaceOnUse" x="11" y="2" width="69" height="46">
<path d="M79.4452 2.36768H11.5481V47.6324H79.4452V2.36768Z" fill="white"/>
</mask>
<g mask="url(#mask0_168_1670)">
<path d="M59.2631 3.74083C61.7292 2.51696 62.9517 2.67765 62.9786 3.91801C63.0111 5.53008 62.7754 7.67283 62.6059 9.224C61.6909 17.6526 60.1617 24.5407 60.0468 33.1949C64.0746 22.6565 67.451 15.3317 71.8027 6.31047C73.1843 3.43573 74.0657 3.97319 75.2 3.46386C79.6166 1.47609 79.7815 2.69414 79.206 5.12539C77.0623 14.131 71.5776 42.4862 70.7382 46.8521C70.4968 48.1157 69.1382 47.5802 68.7867 47.0855C67.2134 44.8866 65.438 44.8527 65.6354 43.3907C66.6223 36.1114 70.1729 17.8473 71.0995 13.5443C66.3807 23.3207 61.4868 35.543 58.9708 42.4728C58.439 43.9444 57.4694 43.836 56.8668 42.7593C56.0169 41.247 54.3681 40.4742 54.0941 38.6879C53.2337 33.0052 55.0809 22.1743 55.3377 15.322C52.767 22.8075 48.4546 37.3401 46.5633 43.9057C45.7854 46.6227 43.187 46.1792 43.8778 43.531C46.7492 32.5124 52.9376 13.0234 55.6117 6.01711C56.2431 4.36624 57.893 4.42142 59.2631 3.74083Z" fill="#121225"/>
<path d="M43.6013 2.38878C42.7688 2.18358 40.3516 3.50229 38.8664 3.76277C38.395 3.84597 37.9457 4.34949 37.7867 4.70967C35.4077 10.2316 33.2759 15.4951 31.4297 20.2907C29.0679 20.6985 26.3057 21.2348 23.2139 21.9368C25.4281 16.197 27.6643 10.5366 29.845 5.09216C30.919 2.41108 28.0916 2.15642 26.9946 4.87047C25.5699 8.39874 22.9006 15.009 19.9468 22.7134C17.7766 23.2507 15.4743 23.8656 13.0686 24.5685C11.32 25.0788 11.249 25.5493 12.0051 26.6086C12.4218 27.1983 13.2822 27.1392 13.677 27.5594C14.6964 28.6487 15.3153 29.952 17.1405 30.1495C15.5127 34.5502 13.8848 39.0875 12.4103 43.4571C11.4838 46.2002 14.1205 46.7608 15.1343 43.8589C16.7678 39.1804 18.4885 34.4456 20.2581 29.7245C21.7327 29.3777 25.2997 28.6012 28.5936 27.8799C25.979 35.1204 24.2582 40.6201 23.6067 43.2974C23.486 43.8125 23.6891 44.098 23.7984 44.3082C24.6807 45.6057 25.5191 45.6589 26.6535 47.2633C26.9601 47.701 27.9911 47.9372 28.3417 46.8595C30.7637 39.465 33.2577 32.5266 35.5811 26.3075C36.5459 26.0944 38.283 25.6704 39.3465 24.0669C41.2368 21.2213 41.7801 21.7984 42.2351 20.9337C42.8052 19.8473 42.4268 18.8277 40.41 19.0795C40.41 19.0795 39.6482 19.1347 38.2399 19.2964C40.476 13.4782 42.4325 8.54305 43.8409 4.78231C44.3247 3.50811 44.3851 2.57759 43.6013 2.38878Z" fill="#121225"/>
<path d="M40.3018 40.125C40.822 41.4544 42.4498 41.0526 41.8309 39.4472C41.2005 37.8119 39.6329 32.8902 39.222 31.3042C38.6634 29.1673 41.0855 29.7521 39.8582 31.1483C38.8061 32.3499 38.1039 32.8311 36.1589 35.1153C34.2791 37.32 34.7889 40.1811 36.7999 40.8134C39.0686 41.527 41.0692 38.9998 42.308 37.1467C43.5086 35.3515 42.3463 34.299 41.1353 35.3602C40.3574 36.0429 39.4587 37.0904 38.5484 37.6549C37.8088 38.1101 37.2272 37.6211 38.214 36.249C39.3599 34.6601 40.6419 33.3288 41.5952 31.8271C43.5411 28.7674 39.6934 27.0033 38.0388 28.9911C37.1506 30.0504 37.3757 31.0912 37.6171 31.9839C38.0061 33.4131 39.4529 37.9774 40.3018 40.125Z" fill="#121225"/>
</g>
</svg>
