<svg width="92" height="50" viewBox="0 0 92 50" fill="none" xmlns="http://www.w3.org/2000/svg">
<mask id="mask0_168_1651" style="mask-type:luminance" maskUnits="userSpaceOnUse" x="0" y="17" width="90" height="17">
<path d="M90 17H0V33.2H90V17Z" fill="white"/>
</mask>
<g mask="url(#mask0_168_1651)">
<path d="M35.5509 25.6875C35.5509 26.2549 35.3181 26.4221 34.4336 26.7388C33.7268 27.0159 33.1851 27.1346 33.0243 27.1346C32.728 27.1346 32.5969 26.9059 32.5969 26.4309C32.5969 25.3004 32.9057 23.9281 34.0527 23.9281C35.1107 23.9325 35.5509 25.1244 35.5509 25.6875ZM24.0903 30.6227C24.0903 30.5304 24.0776 30.4687 24.031 30.4248C23.9126 30.3016 23.4724 30.2268 23.2523 29.9981C23.0915 29.831 22.99 29.5407 22.99 28.8676V26.2813C22.99 26.0834 23.0365 25.9602 23.227 25.9602H25.7535C25.944 25.9602 25.9863 26.0834 25.9863 26.2813V28.8633C25.9863 29.5362 25.8848 29.8266 25.7239 29.9937C25.5038 30.2224 25.0637 30.2972 24.9452 30.4204C24.8986 30.4687 24.8859 30.526 24.8859 30.6183C24.8859 31.0142 24.9452 31.4145 25.0045 31.4716C25.0637 31.5333 25.1526 31.5464 25.343 31.5464H29.4735C29.6639 31.5464 29.7529 31.5333 29.8121 31.4716C29.8714 31.41 29.9306 31.0142 29.9306 30.6183C29.9306 30.526 29.9137 30.4643 29.8714 30.4204C29.7698 30.3148 29.3128 30.2224 29.0926 29.9937C28.9318 29.8266 28.843 29.5055 28.843 28.9864V21.8564C28.843 21.4912 28.9318 21.2449 29.063 21.1086C29.3 20.8622 29.7698 20.8182 29.8714 20.7127C29.9137 20.6687 29.9306 20.5763 29.9306 20.5016C29.9306 20.2288 29.8714 19.8153 29.8121 19.7538C29.7529 19.6922 29.6936 19.679 29.4735 19.679H25.4911C25.3304 19.679 25.271 19.6966 25.2287 19.7406C25.1864 19.7846 25.1398 20.1057 25.1398 20.5191C25.1398 20.5939 25.1568 20.6863 25.1864 20.7171C25.2584 20.7918 25.6266 20.915 25.7747 21.0689C25.9355 21.2361 25.9947 21.4209 25.9947 21.9399V23.9721C25.9947 24.0468 25.9228 24.1568 25.817 24.1568H23.172C23.0704 24.1568 22.9942 24.0512 22.9942 23.9721V21.9399C22.9942 21.4209 23.0534 21.2361 23.2143 21.0689C23.3624 20.915 23.7264 20.7963 23.8025 20.7171C23.8321 20.6863 23.849 20.5939 23.849 20.5191C23.849 20.1057 23.8025 19.7846 23.7602 19.7406C23.7179 19.6922 23.6586 19.679 23.4978 19.679H19.5154C19.2953 19.679 19.2361 19.6966 19.1768 19.7538C19.1176 19.8153 19.0583 20.2288 19.0583 20.5016C19.0583 20.5763 19.0753 20.6687 19.1176 20.7127C19.2192 20.8182 19.6889 20.8666 19.926 21.1086C20.0571 21.2449 20.146 21.4912 20.146 21.8564V28.9864C20.146 29.5055 20.0571 29.8266 19.8962 29.9937C19.6762 30.2224 19.2192 30.3148 19.1176 30.4204C19.071 30.4687 19.0583 30.526 19.0583 30.6183C19.0583 31.0142 19.1176 31.4145 19.1768 31.4716C19.2361 31.5333 19.2953 31.5464 19.5154 31.5464H23.6459C23.8364 31.5464 23.9253 31.5333 23.9845 31.4716C24.031 31.4145 24.0903 31.0185 24.0903 30.6227ZM37.7431 30.4072C38.1706 29.9629 38.2721 29.7034 38.2721 29.4922C38.2721 29.2635 38.2129 29.0788 38.0351 28.8985C37.8447 28.7005 37.6838 28.6697 37.5357 28.6697C37.3284 28.6697 37.2394 28.7313 37.1083 28.8676C36.4608 29.5407 35.6398 29.9058 34.6409 29.9058C33.6294 29.9058 32.9947 29.202 32.9947 28.7577C32.9947 28.6345 33.0962 28.529 33.3629 28.4542C36.1857 27.5393 37.3622 26.9279 37.8024 26.4705C38.052 26.2286 38.1536 25.9382 38.1536 25.6787C38.1536 24.5175 36.537 22.4545 34.0527 22.4545C33.0243 22.4545 31.9832 22.8812 31.2045 23.6906C30.4258 24.4998 29.9391 25.6435 29.9391 27.205C29.9391 28.7005 30.3962 29.7386 31.1876 30.5656C31.9832 31.3881 33.1259 31.8015 34.3786 31.8015C35.6567 31.7971 36.8585 31.3221 37.7431 30.4072ZM42.3392 22.9691C42.3392 22.7712 42.2376 22.6964 42.0767 22.6964H39.2412C39.0805 22.6964 39.0212 22.6964 38.9746 22.7581C38.9154 22.8196 38.8603 23.2331 38.8603 23.5058C38.8603 23.5806 38.89 23.6421 38.9196 23.6906C39.0212 23.8269 39.2412 23.8752 39.436 24.0425C39.5671 24.1788 39.6264 24.4691 39.6264 24.9133V28.9908C39.6264 29.5099 39.5671 29.8485 39.419 29.9981C39.1989 30.2268 38.8307 30.3324 38.7292 30.4424C38.6995 30.4731 38.6868 30.5347 38.6868 30.6403C38.6868 31.0362 38.7461 31.4189 38.8053 31.4804C38.8519 31.5244 38.9239 31.5552 39.0847 31.5552H42.8597C43.0205 31.5552 43.0925 31.5244 43.139 31.4804C43.1982 31.4189 43.2406 31.0362 43.2406 30.6403C43.2406 30.5347 43.2279 30.4731 43.1982 30.4424C43.0967 30.3368 42.7581 30.2312 42.5381 29.9981C42.3899 29.8441 42.3477 29.5099 42.3477 28.9908L42.3392 22.9691ZM40.769 19.1204C39.9607 19.1204 39.3005 19.7758 39.3005 20.6028C39.3005 21.4428 39.9607 22.0983 40.769 22.0983C41.5943 22.0983 42.2545 21.4428 42.2545 20.6028C42.2545 19.7758 41.59 19.1204 40.769 19.1204ZM52.1576 25.0629C52.1576 23.3518 51.307 22.481 49.9697 22.481C49.339 22.481 48.662 22.692 47.9848 23.1231C47.7521 23.2771 47.6758 23.321 47.6166 23.321C47.3796 23.321 47.5446 22.6964 47.1172 22.6964H44.5314C44.3706 22.6964 44.324 22.6964 44.269 22.7581C44.1971 22.8328 44.1378 23.2331 44.1378 23.5058C44.1378 23.5806 44.1548 23.6421 44.1971 23.6906C44.3156 23.8137 44.5356 23.8577 44.7092 24.0425C44.8403 24.1788 44.8996 24.4691 44.8996 24.9133V28.9908C44.8996 29.5099 44.8573 29.8485 44.7092 29.9981C44.5018 30.2093 44.1505 30.3324 44.0489 30.4424C44.0193 30.4731 44.0024 30.5347 44.0024 30.6403C44.0024 31.0362 44.0489 31.4189 44.1039 31.4804C44.1463 31.5244 44.2351 31.5552 44.396 31.5552H48.099C48.2768 31.5552 48.3318 31.5244 48.3784 31.4804C48.4503 31.4056 48.5138 31.0362 48.5138 30.6403C48.5138 30.5347 48.4969 30.4731 48.4672 30.4424C48.3488 30.3192 48.0102 30.2137 47.807 29.9981C47.6589 29.8441 47.587 29.5099 47.587 28.9908V25.9822C47.587 24.7462 48.2471 24.3635 48.7339 24.3635C49.2333 24.3635 49.5126 24.7462 49.5126 25.5555V29.787C49.5126 30.9174 50.2024 31.6652 51.4509 31.6652C52.8306 31.6652 53.4188 30.6271 53.4188 30.4116C53.4188 30.2268 53.1395 29.8618 52.9617 29.8618C52.7543 29.8618 52.4624 30.1345 52.3143 30.1345C52.2126 30.1345 52.1534 30.0597 52.1534 29.8134V25.0629H52.1576ZM79.3873 30.4072C79.8148 29.9629 79.9156 29.7034 79.9156 29.4922C79.9156 29.2635 79.8571 29.0788 79.6834 28.8985C79.4926 28.7005 79.3279 28.6697 79.1839 28.6697C78.9769 28.6697 78.8878 28.7313 78.7564 28.8676C78.1093 29.5407 77.2876 29.9058 76.2895 29.9058C75.2734 29.9058 74.6425 29.202 74.6425 28.7577C74.6425 28.6345 74.7442 28.529 75.0106 28.4542C77.8339 27.5393 79.0057 26.9279 79.4503 26.4705C79.7005 26.2286 79.8013 25.9382 79.8013 25.6787C79.8013 24.5175 78.1849 22.4545 75.7009 22.4545C74.6722 22.4545 73.6273 22.8812 72.8488 23.6906C72.0694 24.4998 71.587 25.6435 71.587 27.205C71.587 28.7005 72.0442 29.7386 72.8353 30.5656C73.6309 31.3881 74.7739 31.8015 76.0222 31.8015C77.2966 31.7971 78.5026 31.3221 79.3873 30.4072ZM77.1949 25.6875C77.1949 26.2549 76.9618 26.4221 76.0771 26.7388C75.3706 27.0159 74.8288 27.1346 74.6641 27.1346C74.3716 27.1346 74.2366 26.9059 74.2366 26.4309C74.2366 25.3004 74.5453 23.9281 75.6928 23.9281C76.7548 23.9325 77.1949 25.1244 77.1949 25.6875ZM61.3244 30.4072C61.7518 29.9629 61.8534 29.7034 61.8534 29.4922C61.8534 29.2635 61.7941 29.0788 61.6164 28.8985C61.4259 28.7005 61.2651 28.6697 61.117 28.6697C60.9096 28.6697 60.8208 28.7313 60.6896 28.8676C60.0421 29.5407 59.221 29.9058 58.2222 29.9058C57.2108 29.9058 56.5759 29.202 56.5759 28.7577C56.5759 28.6345 56.6775 28.529 56.9441 28.4542C59.767 27.5393 60.9393 26.9279 61.3794 26.4705C61.6291 26.2286 61.7307 25.9382 61.7307 25.6787C61.7307 24.5175 60.114 22.4545 57.6297 22.4545C56.6014 22.4545 55.5603 22.8812 54.7815 23.6906C54.0028 24.4998 53.5161 25.6435 53.5161 27.205C53.5161 28.7005 53.9732 29.7386 54.7646 30.5656C55.5603 31.3881 56.7029 31.8015 57.9556 31.8015C59.2379 31.7971 60.4441 31.3221 61.3244 30.4072ZM59.1364 25.6875C59.1364 26.2549 58.8994 26.4221 58.0191 26.7388C57.3123 27.0159 56.7706 27.1346 56.6099 27.1346C56.3136 27.1346 56.1824 26.9059 56.1824 26.4309C56.1824 25.3004 56.4913 23.9281 57.6382 23.9281C58.6962 23.9325 59.1364 25.1244 59.1364 25.6875ZM88.5538 25.0629C88.5538 23.3518 87.7033 22.481 86.3659 22.481C85.735 22.481 85.0582 22.692 84.3805 23.1231C84.1438 23.2771 84.0718 23.321 84.0124 23.321C83.7757 23.321 83.9404 22.6964 83.5129 22.6964H80.9272C80.767 22.6964 80.7202 22.6964 80.6608 22.7581C80.5888 22.8328 80.5294 23.2331 80.5294 23.5058C80.5294 23.5806 80.542 23.6421 80.5888 23.6906C80.7076 23.8137 80.9272 23.8577 81.1054 24.0425C81.2368 24.1788 81.2953 24.4691 81.2953 24.9133V28.9908C81.2953 29.5099 81.253 29.8485 81.1054 29.9981C80.8975 30.2093 80.5465 30.3324 80.4448 30.4424C80.4151 30.4731 80.4025 30.5347 80.4025 30.6403C80.4025 31.0362 80.4448 31.4189 80.5042 31.4804C80.551 31.5244 80.6401 31.5552 80.8003 31.5552H84.5038C84.6811 31.5552 84.7405 31.5244 84.7828 31.4804C84.8548 31.4056 84.9142 31.0362 84.9142 30.6403C84.9142 30.5347 84.9016 30.4731 84.8719 30.4424C84.7531 30.3192 84.4147 30.2137 84.2113 29.9981C84.0637 29.8441 83.9917 29.5099 83.9917 28.9908V25.9822C83.9917 24.7462 84.6514 24.3635 85.1383 24.3635C85.6378 24.3635 85.9168 24.7462 85.9168 25.5555V29.787C85.9168 30.9174 86.6071 31.6652 87.8554 31.6652C89.2351 31.6652 89.8237 30.6271 89.8237 30.4116C89.8237 30.2268 89.5438 29.8618 89.3665 29.8618C89.1586 29.8618 88.867 30.1345 88.7185 30.1345C88.6168 30.1345 88.5583 30.0597 88.5583 29.8134L88.5538 25.0629ZM65.4846 19.3975H62.6617C62.484 19.3975 62.4121 19.3975 62.3697 19.4723C62.3105 19.5471 62.2682 19.9297 62.2682 20.1893C62.2682 20.2816 62.2851 20.3432 62.3147 20.4004C62.4163 20.506 62.8141 20.6159 62.9919 20.7963C63.14 20.9502 63.2119 21.2537 63.2119 22.4149V28.5246C63.2119 29.5495 63.1104 29.8706 62.9919 29.9893C62.7845 30.2004 62.4332 30.3236 62.3316 30.4335C62.302 30.4643 62.2893 30.526 62.2893 30.6315C62.2893 31.0274 62.3316 31.41 62.3909 31.4716C62.4375 31.5156 62.4924 31.5464 62.6871 31.5464H66.3778C66.5677 31.5464 66.6271 31.5156 66.6694 31.4716C66.7288 31.41 66.8008 31.0274 66.8008 30.6315C66.8008 30.526 66.7882 30.4643 66.7414 30.4335C66.6397 30.328 66.2842 30.2049 66.0943 29.9893C65.9332 29.8354 65.8738 29.5011 65.8738 28.982V28.6301C65.8738 28.4322 65.9332 28.3707 66.2545 28.032C66.403 27.8955 66.5344 27.7901 66.6361 27.7901C66.7837 27.7901 66.898 27.8955 68.5144 31.2869C68.6161 31.5024 68.6629 31.5464 68.9248 31.5464H71.3206C71.4979 31.5464 71.5573 31.5156 71.5996 31.4716C71.659 31.41 71.7184 31.0274 71.7184 30.6315C71.7184 30.526 71.7058 30.4643 71.6761 30.4335C71.5744 30.328 70.957 30.2489 70.8256 29.9893C68.6971 26.2461 68.6377 26.123 68.6377 25.8986C68.6377 25.7007 69.5773 24.7242 70.3558 24.082C70.8553 23.6685 71.1766 23.9456 71.1766 23.4574C71.1766 22.89 71.1046 22.692 70.9993 22.692H67.4443C67.1347 22.692 67.105 22.8768 67.105 23.5629C67.105 23.7917 67.7233 23.8225 67.7233 24.1436C67.7233 24.4163 66.2248 25.9163 65.9755 25.9163C65.8864 25.9163 65.8738 25.8546 65.8738 25.5951V19.8242C65.8657 19.5778 65.7046 19.3975 65.4846 19.3975Z" fill="#121225"/>
<path d="M8.19756 17L10.1486 23.1668L16.3952 23.1889L11.3548 27.0244L13.2634 33.2044L8.19756 29.404L3.13173 33.2L5.04045 27.02L0 23.1889L6.24663 23.1668L8.19756 17Z" fill="#121225"/>
<path d="M88.5599 19.072C88.8056 19.072 89.0423 19.138 89.2709 19.2655C89.4995 19.3931 89.6777 19.5778 89.8046 19.8154C89.936 20.0573 89.999 20.308 89.999 20.5676C89.999 20.827 89.936 21.0778 89.8091 21.3153C89.6813 21.5528 89.504 21.7376 89.2754 21.8695C89.0468 22.0014 88.8101 22.0675 88.5599 22.0675C88.3106 22.0675 88.0694 22.0014 87.8408 21.8695C87.6122 21.7376 87.4349 21.5528 87.3071 21.3153C87.1802 21.0778 87.1172 20.827 87.1172 20.5676C87.1172 20.3036 87.1802 20.0529 87.3116 19.8154C87.443 19.5734 87.6203 19.3931 87.8489 19.2655C88.0739 19.138 88.3106 19.072 88.5599 19.072ZM88.5599 19.3667C88.361 19.3667 88.1711 19.4195 87.9893 19.5207C87.8066 19.6218 87.6626 19.7714 87.5573 19.9649C87.4511 20.1585 87.4007 20.3608 87.4007 20.572C87.4007 20.7831 87.4511 20.981 87.5528 21.1701C87.6545 21.3593 87.7985 21.5089 87.9803 21.6144C88.1621 21.72 88.3574 21.7727 88.5563 21.7727C88.7588 21.7727 88.9496 21.72 89.1314 21.6144C89.3132 21.5089 89.4572 21.3593 89.5589 21.1701C89.6606 20.981 89.72 20.7787 89.72 20.572C89.72 20.3608 89.6687 20.1585 89.5634 19.9649C89.4572 19.7714 89.3132 19.6262 89.1314 19.5207C88.9496 19.4195 88.7588 19.3667 88.5599 19.3667ZM87.9083 21.3725V19.7846H88.217C88.5095 19.7846 88.6706 19.7846 88.7084 19.789C88.8101 19.7978 88.8902 19.8197 88.9451 19.8549C89.0045 19.8857 89.0513 19.9385 89.0891 20.0089C89.1269 20.0749 89.1485 20.1541 89.1485 20.2376C89.1485 20.352 89.1107 20.4488 89.0387 20.5324C88.9667 20.6116 88.865 20.6643 88.7336 20.6819C88.7804 20.6995 88.8146 20.7215 88.8398 20.7435C88.865 20.7655 88.8992 20.8051 88.9415 20.8666C88.9541 20.8843 88.9919 20.9458 89.0558 21.0602L89.2376 21.3812H88.8524L88.7255 21.1218C88.6409 20.9502 88.5689 20.8403 88.5095 20.7962C88.4546 20.7522 88.3826 20.7259 88.2935 20.7259H88.2134V21.3768L87.9083 21.3725ZM88.217 20.4708H88.3448C88.5221 20.4708 88.6364 20.462 88.6787 20.4488C88.721 20.4356 88.7588 20.4092 88.7804 20.374C88.8056 20.3388 88.8182 20.2949 88.8182 20.2508C88.8182 20.2068 88.8056 20.1672 88.7804 20.132C88.7552 20.0969 88.721 20.0705 88.6787 20.0573C88.6319 20.0397 88.5221 20.0353 88.3448 20.0353H88.217V20.4708Z" fill="#121225"/>
</g>
</svg>
