<svg width="90" height="50" viewBox="0 0 90 50" fill="none" xmlns="http://www.w3.org/2000/svg">
<g clip-path="url(#clip0_168_1624)">
<path d="M20.6505 15.5375H13.1779L12.7886 15.7921L11.6804 19.8353L11.8601 20.03H19.4525L18.6588 22.9651L21.0548 20.03H23.0764C22.5523 21.9767 21.9233 24.3278 21.6837 25.2563H18.509C18.1946 25.3911 18.1347 25.4659 17.955 25.7055L15.3193 35.4842H9.32936L12.8784 22.2463H11.336L10.9916 22.4859L6.39425 39.782L0.104736 39.767L6.82853 14.4593C7.47245 12.9468 8.86513 11.7787 10.3776 11.2546C10.5418 11.196 10.6692 11.1649 10.8606 11.1182C10.9136 11.1053 10.9715 11.0912 11.0365 11.0749L21.8485 11.0599L20.6505 15.5375Z" fill="#121225"/>
<path d="M53.5359 26.1396L53.7006 26.1246C54.3514 24.6971 54.9874 23.2328 55.6036 21.8143L55.6042 21.8131L55.6048 21.8116L55.6135 21.7915C55.873 21.194 56.1291 20.6048 56.3811 20.0298H62.5059C62.3776 20.3013 62.2492 20.5733 62.1207 20.8457L62.1171 20.8534C61.2118 22.7725 60.2948 24.7159 59.2863 26.6937C57.8936 27.083 56.9951 27.2927 55.7222 27.5622L58.9119 28.296C58.822 30.8717 58.4477 35.484 58.4477 35.484H52.3828C52.4037 34.5782 52.444 33.6593 52.4843 32.7441C52.5304 31.6925 52.5764 30.6458 52.5924 29.6288L51.035 35.484H45.075L50.421 15.5223H56.3811L53.5359 26.1396Z" fill="#121225"/>
<path d="M59.0916 35.4842H65.1864L70.5325 15.5074H64.4376L59.0916 35.4842Z" fill="#121225"/>
<path d="M77.4906 16.6421L77.4893 16.6465C77.2789 17.4249 77.0429 18.2973 76.8071 19.2213H70.6523C71.0267 17.8136 71.3262 16.7054 71.6557 15.5074H77.7954C77.7035 15.8547 77.6011 16.2332 77.4919 16.6372L77.4906 16.6421Z" fill="#121225"/>
<path d="M66.2944 35.4843H72.4641L76.5973 20.045H70.4425L66.2944 35.4843Z" fill="#121225"/>
<path d="M41.3611 20.06C41.2381 20.5065 41.1307 20.9213 41.0169 21.3614V21.3615C40.9092 21.7776 40.7957 22.2162 40.6573 22.7256C41.0088 22.2624 41.3304 21.7906 41.6562 21.3126C41.9414 20.8944 42.2297 20.4713 42.5442 20.045C44.2663 20.1199 46.6024 20.2547 47.2014 21.872C47.5117 22.7462 47.1846 23.9522 46.8829 25.0652C46.8642 25.1343 46.8455 25.203 46.827 25.2713L44.0866 35.5142H38.3961L41.1814 25.1066C40.7621 24.4028 40.0134 25.1366 40.0134 25.1366L37.243 35.4992H31.5076L35.6407 20.075L41.3611 20.06Z" fill="#121225"/>
<path d="M82.9351 21.8672C83.1043 21.2346 83.2548 20.6717 83.4411 20.03L77.7206 20.045L73.5725 35.4993H79.293L82.0484 25.1814C82.0484 25.1814 82.7971 24.4477 83.2164 25.1665L80.4461 35.5143H86.1216L88.862 25.2863C88.8788 25.2191 88.8872 25.1749 88.8959 25.1295C88.9104 25.0535 88.9255 24.974 88.9818 24.7771C89.2963 23.7289 89.5659 22.6956 89.2364 21.9169C88.6224 20.2996 86.3612 20.1199 84.6391 20.045C83.9951 20.9585 83.3213 21.9019 82.6923 22.7705C82.7796 22.4486 82.8585 22.1536 82.9337 21.8724L82.9351 21.8672Z" fill="#121225"/>
<path fill-rule="evenodd" clip-rule="evenodd" d="M88.3529 16.8104C88.5626 16.8104 88.7273 16.8254 88.8171 16.8703C88.9968 16.9452 89.0867 17.095 89.0867 17.3196C89.0867 17.4843 89.0268 17.6041 88.922 17.679C88.8621 17.7089 88.7872 17.7389 88.6674 17.7539C88.8022 17.7688 88.907 17.8287 88.9669 17.9336C89.0268 18.0234 89.0567 18.1282 89.0567 18.2181V18.4876C89.0567 18.5326 89.0567 18.5625 89.0717 18.5775V18.6074H88.7872V18.5625L88.7722 18.5026V18.3678C88.7722 18.1582 88.7123 18.0234 88.6075 17.9635C88.5476 17.9186 88.4278 17.9036 88.2631 17.9036H88.0534V18.6074H87.7539V16.8104H88.3529ZM88.6824 17.08C88.6075 17.0351 88.4877 17.0201 88.323 17.0201H88.0534V17.664H88.323C88.4577 17.664 88.5476 17.649 88.6075 17.6191C88.7273 17.5742 88.7872 17.4843 88.7872 17.3495C88.8022 17.2297 88.7572 17.1399 88.6824 17.08Z" fill="#121225"/>
<path fill-rule="evenodd" clip-rule="evenodd" d="M89.491 18.8619C89.1915 19.1764 88.8171 19.3411 88.3828 19.3411C87.9486 19.3411 87.5742 19.1764 87.2747 18.8619C86.9752 18.5474 86.8254 18.1581 86.8254 17.7088C86.8254 17.2596 86.9752 16.8702 87.2897 16.5557C87.6041 16.2413 87.9635 16.0765 88.3978 16.0765C88.8321 16.0765 89.2214 16.2263 89.506 16.5557C89.8204 16.8702 89.9702 17.2596 89.9702 17.7088C89.9552 18.1581 89.8055 18.5474 89.491 18.8619ZM87.4244 16.7055C87.1549 16.975 87.0351 17.3045 87.0351 17.6938C87.0351 18.0832 87.1699 18.4126 87.4244 18.6972C87.694 18.9667 88.0085 19.1015 88.3828 19.1015C88.7722 19.1015 89.0717 18.9667 89.3412 18.6972C89.6108 18.4276 89.7306 18.0832 89.7306 17.6938C89.7306 17.3045 89.5958 16.975 89.3412 16.7055C89.0717 16.421 88.7572 16.2862 88.3828 16.2862C88.0085 16.3012 87.694 16.4359 87.4244 16.7055Z" fill="#121225"/>
<path fill-rule="evenodd" clip-rule="evenodd" d="M31.2381 20.1199L30.7589 20.03V20.045H23.9902C23.8621 20.5263 23.7301 21.0246 23.5954 21.5333C23.2733 22.7496 22.9353 24.0253 22.5975 25.2713H26.7905L26.9702 25.3611L27.0601 25.4809C27.1499 25.8403 26.9852 26.1998 26.6408 26.3346L21.2348 27.3529C20.6507 27.5475 20.2614 27.8321 19.917 28.2514C18.8987 29.8687 18.3446 32.2497 18.704 33.7921C19.1083 35.5442 21.2198 35.5442 22.9419 35.4544L24.8587 33.1033H25.0085L24.3795 35.4843C25.039 35.4843 25.7659 35.4827 26.4974 35.481C27.9753 35.4776 29.4727 35.4743 30.4744 35.4843L33.11 25.6457C33.4394 24.4327 33.8138 22.9801 33.4095 21.9618C32.9902 20.9585 32.2264 20.3894 31.2381 20.1199ZM26.521 27.4128C26.2963 27.3978 26.1166 27.4427 25.9369 27.5925C25.9339 27.5946 25.9309 27.5968 25.9279 27.5992C25.8668 27.6447 25.7679 27.7187 25.6824 27.847C24.2298 30.4976 25.2331 31.0217 25.6075 30.8271C25.892 29.7788 26.2215 28.5509 26.521 27.4128Z" fill="#121225"/>
</g>
<defs>
<clipPath id="clip0_168_1624">
<rect width="90" height="28.9018" fill="white" transform="translate(0 11)"/>
</clipPath>
</defs>
</svg>
