<svg width="90" height="50" viewBox="0 0 90 50" fill="none" xmlns="http://www.w3.org/2000/svg">
<g clip-path="url(#clip0_168_1645)">
<path fill-rule="evenodd" clip-rule="evenodd" d="M2.53437 19.8254H2.54658H2.54832H2.56925C4.19937 19.7748 5.87657 19.5063 7.55374 19.0251C9.2327 18.5439 10.8001 17.8832 12.2105 17.0603C12.3517 16.9836 12.4197 16.8214 12.3762 16.6732C12.3483 16.5738 12.2785 16.4971 12.1792 16.4553L12.16 16.4483C11.2499 16.1502 10.298 16.0002 9.3373 16.0002C8.47957 16.0002 7.62176 16.1205 6.79011 16.3594C5.02576 16.865 3.47061 17.871 2.28855 19.2657L2.26065 19.2989C2.20312 19.3773 2.1822 19.4837 2.21183 19.583C2.25368 19.726 2.38618 19.8254 2.53437 19.8254ZM2.87606 25.0418C4.69971 25.0418 7.01328 24.728 8.91365 24.2206C13.2217 23.0734 15.9275 21.1626 16.4262 20.596C16.7626 20.2142 16.4384 19.4593 16.1559 19.0722C15.9066 18.7305 15.014 17.9128 14.2869 17.9128C14.1283 17.9128 13.9888 17.9494 13.8616 18.0279C11.7955 19.2814 10.066 20.0468 7.89196 20.671C5.88351 21.2463 3.79312 21.5514 1.84568 21.5514C1.67656 21.5514 1.50571 21.5497 1.33833 21.5444C0.916422 21.5444 0.618291 21.7083 0.459637 22.0274C0.435229 22.0762 0.414307 22.1355 0.403846 22.1825L0.402103 22.1913L0.40036 22.1982C0.219041 22.7404 0.0202876 23.5442 0.00110962 23.9487C-0.0180683 24.3462 0.212067 24.653 0.635725 24.789C1.14655 24.9546 1.92065 25.0418 2.87606 25.0418ZM18.1085 22.8049C18.2793 23.4674 18.356 24.2886 18.3752 24.5239C18.3909 24.721 18.4432 25.7356 17.8592 26.2412C16.3493 27.5419 13.2599 28.9296 11.1469 29.5207C9.02159 30.1152 6.654 30.4569 4.65079 30.4569C3.56288 30.4569 2.66326 30.3488 2.1838 30.1622C1.44982 29.8746 1.00175 29.6235 0.327033 27.8016C0.232887 27.4059 0.255552 27.1043 0.393284 26.9299C0.497891 26.7974 0.680954 26.7294 0.935498 26.7294C1.04708 26.7294 1.17261 26.7416 1.30859 26.7677L1.31905 26.7695H1.32952C1.35742 26.7713 1.43587 26.7765 1.4533 26.7782C2.06699 26.8445 2.70858 26.8793 3.36412 26.8793C4.79026 26.8793 6.26523 26.7224 7.74541 26.4121L7.75063 26.4103L7.75585 26.4086L7.76459 26.4069C9.7922 26.053 14.0759 24.4821 16.8532 22.2243C17.0363 22.0761 17.221 22.0012 17.4024 22.0012C17.5401 22.0012 17.6465 22.043 17.711 22.0796C17.915 22.1929 18.0353 22.5486 18.1085 22.8049ZM17.4931 28.3682C17.4652 28.3682 17.4356 28.37 17.406 28.3752C17.3467 28.384 17.2787 28.4258 17.2578 28.4415L17.2543 28.445L17.2491 28.4485C15.4882 29.634 13.3733 30.6016 11.1348 31.2432C10.6763 31.374 10.2003 31.4942 9.68074 31.6076C8.37665 31.843 6.85637 31.9632 5.15824 31.9632C4.85313 31.9632 4.53757 31.9598 4.22026 31.951C4.20536 31.951 4.18919 31.9498 4.17065 31.9483L4.16099 31.9476C4.15246 31.9471 4.14355 31.9465 4.13429 31.9459C4.10949 31.9442 4.08206 31.9423 4.05289 31.9423C4.00058 31.9423 3.957 31.9476 3.92039 31.958C3.85414 31.9825 3.76696 32.0278 3.71641 32.1184C3.67282 32.1969 3.66235 32.2858 3.68677 32.3712C3.70595 32.4409 3.74779 32.5002 3.80707 32.5438C3.81085 32.5476 3.81556 32.5505 3.81986 32.5531L3.8245 32.556C4.55675 33.0407 5.37442 33.433 6.25835 33.7242C7.2347 34.0728 8.25111 34.2524 9.27978 34.2611H9.28846H9.35296H9.43839H9.52559C10.3467 34.2611 11.1226 34.1582 11.8304 33.9542C12.3168 33.8148 12.8085 33.6212 13.2932 33.3807C14.8413 32.6485 16.1507 31.503 17.0852 30.0646C17.3414 29.6723 17.5646 29.2661 17.7494 28.8599C17.7913 28.7745 17.8035 28.6367 17.779 28.5495C17.7337 28.3927 17.5803 28.3682 17.4931 28.3682ZM29.1118 18.7394C29.5431 18.7415 29.9692 18.8334 30.3631 19.0091C31.1374 19.341 31.7544 19.958 32.0863 20.7323C32.262 21.1262 32.3538 21.5523 32.356 21.9836C32.3536 22.4166 32.2617 22.8444 32.0863 23.2403C31.9222 23.6241 31.6861 23.9729 31.3906 24.2678C31.0915 24.5526 30.7434 24.781 30.3631 24.9419C29.9696 25.1188 29.5432 25.2107 29.1118 25.2116H26.922V28.9331H25.3902V18.7394H29.1118ZM29.1118 23.7553C29.334 23.7561 29.5538 23.7092 29.7563 23.6178C29.9593 23.5264 30.1425 23.3964 30.2957 23.2348C30.4548 23.0701 30.5819 22.8771 30.6705 22.6658C30.7645 22.4479 30.8123 22.2128 30.8107 21.9755C30.8119 21.7417 30.7641 21.5102 30.6705 21.2959C30.5832 21.0856 30.4559 20.8941 30.2957 20.7323C30.1405 20.5717 29.9578 20.4402 29.7563 20.3439C29.5552 20.2476 29.3348 20.1978 29.1118 20.1983H26.922V23.7553H29.1118ZM36.029 21.5683C36.4238 21.5638 36.8161 21.6323 37.186 21.7706C37.5177 21.89 37.8228 22.0732 38.084 22.3099C38.3294 22.5376 38.5257 22.8129 38.6611 23.119C38.8037 23.4474 38.8762 23.8019 38.8741 24.1599V28.9305H37.8224L37.4988 28.2051C37.3482 28.363 37.1757 28.4983 36.9864 28.6069C36.7787 28.7228 36.5577 28.8133 36.3284 28.8765C36.0207 28.9645 35.7018 29.0063 35.3818 29.0006C34.5692 29.0006 33.949 28.7983 33.5211 28.3938C33.3091 28.1936 33.142 27.9506 33.0308 27.681C32.9198 27.4114 32.8672 27.1212 32.8765 26.8297C32.8715 26.4848 32.9434 26.143 33.0869 25.8292C33.2457 25.5112 33.4954 25.2475 33.8042 25.0714C34.2338 24.8303 34.7018 24.6651 35.1877 24.5833C35.9189 24.451 36.6614 24.3905 37.4044 24.4026V24.1599C37.4118 23.9963 37.3847 23.833 37.3248 23.6805C37.2648 23.5281 37.1734 23.3901 37.0565 23.2754C36.7703 23.0352 36.4017 22.9163 36.029 22.9437C35.6568 22.9165 35.2857 23.0112 34.9719 23.2134C34.7641 23.3666 34.6223 23.5932 34.5755 23.8471H33.122C33.1377 23.5362 33.2178 23.2318 33.3571 22.9534C33.4963 22.6749 33.6917 22.4283 33.931 22.229C34.4326 21.7886 35.132 21.5683 36.029 21.5683ZM35.4682 27.7142C35.9882 27.7485 36.5011 27.5782 36.8974 27.2396C37.0593 27.0951 37.1883 26.9175 37.2758 26.7188C37.3632 26.5202 37.4071 26.3052 37.4044 26.0881V25.6917C36.8797 25.6836 36.3551 25.7142 35.8349 25.7833C35.5134 25.8232 35.1987 25.9057 34.8991 26.0288C34.7097 26.0997 34.55 26.2328 34.4461 26.4063C34.3675 26.5617 34.3277 26.7338 34.3301 26.9079C34.3339 27.0171 34.3623 27.124 34.4132 27.2207C34.4641 27.3173 34.5362 27.4013 34.624 27.4662C34.8668 27.6467 35.1662 27.7347 35.4682 27.7142ZM41.7787 27.3501C41.5649 27.149 41.4325 26.8765 41.4065 26.5842H39.953C39.9489 27.2561 40.2118 27.9021 40.6838 28.3802C41.1278 28.8027 41.7993 29.014 42.6982 29.014C43.5522 29.0121 44.2111 28.7973 44.675 28.3694C44.9007 28.1658 45.0798 27.9158 45.1998 27.6365C45.32 27.3572 45.3783 27.0553 45.3708 26.7514C45.389 26.3841 45.2857 26.0211 45.0768 25.7185C44.8823 25.4628 44.6324 25.2544 44.3459 25.1091C44.0523 24.9553 43.7407 24.8384 43.4183 24.7612C43.0866 24.6803 42.7765 24.6021 42.4906 24.5265C42.2384 24.4706 41.9951 24.3798 41.7679 24.2569C41.6774 24.2107 41.6017 24.1398 41.5497 24.0525C41.4977 23.9652 41.4715 23.865 41.4739 23.7634C41.4779 23.6539 41.5064 23.5467 41.5572 23.4495C41.6081 23.3525 41.6801 23.268 41.7679 23.2024C42.0185 23.0361 42.3125 22.9474 42.6133 22.9474C42.9141 22.9474 43.2082 23.0361 43.4587 23.2024C43.6552 23.3619 43.7873 23.587 43.8309 23.8362H45.2925C45.2734 23.2099 45.009 22.6163 44.5563 22.1831C44.1159 21.7732 43.4695 21.5682 42.6174 21.5682C42.2613 21.5625 41.907 21.62 41.571 21.7381C41.282 21.8416 41.0163 22.0011 40.789 22.2073C40.5761 22.4037 40.4054 22.6414 40.2873 22.9058C40.1686 23.1732 40.108 23.4627 40.1093 23.7553C40.0902 24.121 40.1937 24.4825 40.4033 24.7827C40.5952 25.0343 40.8401 25.2405 41.1207 25.3868C41.4151 25.5411 41.7277 25.6579 42.051 25.7347L42.9814 25.972C43.2341 26.0342 43.4772 26.1304 43.7041 26.2579C43.7947 26.3041 43.8702 26.3749 43.9223 26.4623C43.9743 26.5495 44.0005 26.6498 43.9981 26.7514C43.9969 26.8708 43.9686 26.9885 43.9153 27.0955C43.8621 27.2025 43.7853 27.2959 43.6906 27.3689C43.4008 27.5683 43.0519 27.6634 42.701 27.6386C42.368 27.6637 42.038 27.5605 41.7787 27.3501ZM47.6658 26.5843C47.6956 26.8766 47.8297 27.1485 48.0433 27.3502C48.3021 27.5597 48.6308 27.6628 48.9629 27.6387C49.313 27.664 49.6613 27.5688 49.9499 27.369C50.0459 27.295 50.1237 27.1997 50.177 27.0908C50.2302 26.9818 50.2578 26.862 50.2574 26.7407C50.26 26.6394 50.2342 26.5393 50.1827 26.4521C50.1312 26.3648 50.0561 26.2938 49.9661 26.2472C49.7388 26.1207 49.4958 26.0245 49.2434 25.9613L48.313 25.7348C47.9903 25.6585 47.6786 25.5416 47.3853 25.387C47.1034 25.2415 46.8575 25.0352 46.6653 24.7828C46.4555 24.4827 46.352 24.1211 46.3713 23.7554C46.3699 23.4628 46.4305 23.1733 46.5493 22.906C46.6665 22.641 46.8372 22.4032 47.0509 22.2075C47.2788 22.0006 47.5456 21.8411 47.8357 21.7382C48.1717 21.6204 48.5259 21.5628 48.882 21.5683C49.7369 21.5683 50.3814 21.7733 50.8237 22.1832C51.2712 22.619 51.5313 23.212 51.5491 23.8363H50.0928C50.0489 23.5891 49.9202 23.365 49.7288 23.2026C49.4782 23.0363 49.1841 22.9476 48.8834 22.9476C48.5826 22.9476 48.2885 23.0363 48.0379 23.2026C47.9506 23.2686 47.8789 23.3531 47.828 23.4501C47.7772 23.547 47.7485 23.6541 47.744 23.7635C47.7435 23.8643 47.7713 23.9632 47.8242 24.049C47.8771 24.1348 47.953 24.204 48.0433 24.2489C48.2706 24.3718 48.5138 24.4626 48.766 24.5186C49.0519 24.5941 49.362 24.6723 49.6938 24.7532C50.0161 24.8305 50.3277 24.9473 50.6214 25.1011C50.9047 25.2467 51.1517 25.4541 51.3442 25.7078C51.5543 26.0098 51.6578 26.3733 51.6381 26.7407C51.6456 27.0447 51.5873 27.3465 51.4672 27.6259C51.3472 27.9051 51.1681 28.1552 50.9424 28.3588C50.4785 28.7867 49.8205 29.0015 48.9683 29.0033C48.0694 29.0033 47.3979 28.792 46.9538 28.3695C46.4817 27.8921 46.2172 27.2476 46.2176 26.5762L47.6658 26.5843ZM57.6622 21.8379C57.2362 21.656 56.7771 21.5642 56.3139 21.5682C55.9922 21.5641 55.6719 21.6105 55.3646 21.7058C55.1384 21.7757 54.9191 21.8659 54.7093 21.9754C54.5224 22.0884 54.3511 22.2253 54.1996 22.3827L53.876 21.6464H52.8243V31.522H54.2805V28.2049C54.4315 28.359 54.6009 28.4939 54.7848 28.6067C54.9805 28.7267 55.1907 28.8209 55.4105 28.8872C55.7012 28.9717 56.003 29.0117 56.3058 29.0059C56.7663 29.0095 57.2227 28.9191 57.647 28.7401C58.0713 28.5611 58.4545 28.2973 58.7733 27.9649C59.0975 27.6262 59.3514 27.2266 59.5203 26.7891C59.7037 26.3089 59.7952 25.7984 59.79 25.2844C59.7954 24.7712 59.7039 24.2615 59.5203 23.7823C59.3508 23.346 59.0969 22.9473 58.7733 22.6091C58.4571 22.2817 58.0796 22.0196 57.6622 21.8379ZM57.042 27.466C56.7878 27.5805 56.5117 27.6385 56.233 27.6359V27.6387C55.9499 27.6383 55.6702 27.5766 55.4131 27.4579C55.1577 27.3452 54.9288 27.1798 54.7417 26.9725C54.544 26.755 54.3885 26.5026 54.2832 26.2282C54.0575 25.6193 54.0575 24.9495 54.2832 24.3405C54.3878 24.0649 54.5434 23.8116 54.7417 23.5935C54.9288 23.3863 55.1577 23.2208 55.4131 23.1081C55.6677 22.9946 55.9435 22.9367 56.2222 22.9382C56.501 22.9356 56.777 22.9936 57.0312 23.1081C57.2859 23.2222 57.5144 23.3875 57.7027 23.5935C57.905 23.8116 58.0658 24.0647 58.1773 24.3405C58.2937 24.6433 58.3514 24.9654 58.3472 25.2898C58.3516 25.6133 58.294 25.9346 58.1773 26.2363C58.0692 26.5105 57.912 26.7627 57.7135 26.9806C57.5253 27.1867 57.2967 27.3519 57.042 27.466ZM67.5163 25.2897C67.5215 25.8038 67.4302 26.3143 67.247 26.7945C67.0852 27.2267 66.8374 27.6218 66.5191 27.9559C66.2009 28.29 65.818 28.5563 65.3941 28.7389C64.7538 29.0149 64.0445 29.0892 63.3608 28.9519C62.6771 28.8146 62.0515 28.4722 61.5674 27.9703C61.2436 27.6333 60.9914 27.2342 60.8258 26.7972C60.6417 26.3162 60.5502 25.8047 60.5561 25.2897C60.5507 24.7765 60.6421 24.2669 60.8258 23.7876C60.9888 23.356 61.2367 22.9616 61.5549 22.6275C61.8732 22.2936 62.2552 22.0269 62.6785 21.8433C63.1081 21.6618 63.5699 21.5683 64.0363 21.5683C64.5027 21.5683 64.9644 21.6618 65.3941 21.8433C65.8174 22.0269 66.1996 22.2936 66.5178 22.6275C66.8361 22.9616 67.0839 23.356 67.247 23.7876C67.4302 24.2669 67.5222 24.7765 67.5163 25.2897ZM66.06 25.2874C66.0698 24.6665 65.8513 24.0636 65.4457 23.5935C65.2663 23.3875 65.0459 23.2221 64.7981 23.1081C64.5607 22.9961 64.3015 22.938 64.039 22.938C63.7765 22.938 63.5172 22.9961 63.2799 23.1081C63.0316 23.2212 62.8107 23.3868 62.6326 23.5935C62.2275 24.063 62.0078 24.6643 62.0151 25.2843C62.0107 25.6078 62.0683 25.9292 62.185 26.2309C62.2906 26.5027 62.4421 26.7544 62.6326 26.9752C62.8107 27.1819 63.0316 27.3475 63.2799 27.4606C63.5172 27.5726 63.7765 27.6306 64.039 27.6306C64.3015 27.6306 64.5607 27.5726 64.7981 27.4606C65.0459 27.3466 65.2663 27.1812 65.4457 26.9752C65.8487 26.506 66.0672 25.906 66.06 25.2874ZM66.06 25.2874V25.2897V25.2843V25.2874ZM72.1304 21.5845C72.0613 21.5724 71.9909 21.567 71.9204 21.5683C71.6439 21.5654 71.3687 21.612 71.1085 21.7059C70.9083 21.777 70.7146 21.8674 70.5313 21.9755C70.363 22.0914 70.2104 22.2293 70.0787 22.3854L69.7546 21.6492H68.7033V28.9305H70.157V24.8071C70.1511 24.5742 70.1941 24.3428 70.2835 24.1275C70.3728 23.9161 70.5013 23.7232 70.6611 23.5585C70.8241 23.3946 71.0159 23.262 71.2272 23.1675C71.445 23.07 71.6817 23.0203 71.9204 23.0218C71.9791 23.0215 72.0378 23.0278 72.0959 23.0408L72.2602 23.0758L72.4109 23.1082V21.6465L72.2843 21.6142L72.1304 21.5845ZM75.7037 26.5061C75.7004 26.6556 75.7265 26.8043 75.7826 26.9432C75.838 27.0821 75.9209 27.2083 76.0265 27.3142C76.1322 27.4201 76.258 27.5035 76.397 27.5592C76.5359 27.615 76.6846 27.642 76.8339 27.6387H77.0035C77.0609 27.6336 77.1176 27.6255 77.1737 27.6145C77.2252 27.6032 77.2754 27.5879 77.3244 27.5686V28.863C77.252 28.8988 77.175 28.9251 77.0954 28.9412C76.9083 28.9985 76.7139 29.0258 76.5183 29.0221C76.2098 29.0247 75.9046 28.9641 75.6202 28.8441C75.3476 28.7279 75.1017 28.5572 74.8976 28.3425C74.687 28.1171 74.5246 27.8509 74.4202 27.5605C74.3022 27.2254 74.2448 26.8721 74.25 26.5168V23.0218H72.9528V21.6465H73.5222C73.65 21.6507 73.7778 21.629 73.8978 21.5827C74.0172 21.5363 74.1261 21.4663 74.218 21.3768C74.308 21.2867 74.3785 21.1788 74.4254 21.0599C74.4717 20.9411 74.4926 20.8139 74.4874 20.6865V19.7102H75.6959V21.6465H77.3139V23.0218H75.6959L75.7037 26.5061ZM84.1122 27.6737C84.2954 27.4105 84.4487 27.1273 84.568 26.8297H83.0283C82.8672 27.0302 82.6774 27.2057 82.4648 27.3501C82.153 27.5559 81.7833 27.6561 81.4102 27.636C81.1585 27.6373 80.9087 27.5907 80.6739 27.4985C80.4541 27.4112 80.252 27.2841 80.0778 27.1236C79.9109 26.9676 79.7707 26.7854 79.6624 26.5843C79.5541 26.3841 79.487 26.1639 79.4661 25.9371H84.6411C84.6431 25.9271 84.6457 25.9166 84.6476 25.9057C84.658 25.8604 84.6704 25.807 84.6704 25.7483C84.6815 25.689 84.692 25.6189 84.703 25.5379C84.7135 25.4557 84.7194 25.3728 84.7194 25.2898C84.7259 24.7765 84.6346 24.2667 84.4493 23.7878C84.2876 23.3557 84.0457 22.9578 83.7372 22.6146C83.4339 22.287 83.0667 22.0246 82.6585 21.8434C82.2424 21.662 81.793 21.5684 81.3385 21.5684C80.8846 21.5684 80.4352 21.662 80.0185 21.8434C79.6102 22.0246 79.2437 22.287 78.9398 22.6146C78.6248 22.9558 78.3776 23.354 78.212 23.7878C78.028 24.267 77.9367 24.7767 77.942 25.2898C77.9361 25.8048 78.028 26.3163 78.212 26.7973C78.3796 27.2333 78.6313 27.6319 78.9535 27.9704C79.2717 28.3033 79.6552 28.5674 80.0791 28.7464C80.5037 28.9255 80.9602 29.0157 81.4207 29.0113C81.808 29.0165 82.1928 28.9591 82.562 28.8415C82.8815 28.7363 83.1809 28.5767 83.4463 28.3695C83.702 28.1726 83.927 27.938 84.1122 27.6737ZM81.33 22.9436L81.332 22.9437H81.3294L81.33 22.9436ZM82.0696 23.0521C81.8328 22.967 81.5811 22.9301 81.33 22.9436C81.1037 22.9389 80.878 22.98 80.668 23.0646C80.4567 23.1494 80.2657 23.2762 80.1052 23.4372C79.7589 23.7876 79.5352 24.2408 79.4687 24.7289H83.3543C83.2898 24.2393 83.0628 23.7854 82.71 23.4399C82.5248 23.2692 82.307 23.1373 82.0696 23.0521ZM89.1307 21.5683C89.2004 21.5671 89.2696 21.5725 89.3381 21.5845L89.4946 21.6141L89.6185 21.6465V23.1081L89.4704 23.0758L89.3028 23.0542C89.2467 23.0413 89.1887 23.035 89.1307 23.0353C88.8907 23.0335 88.6539 23.0832 88.4348 23.181C88.2241 23.275 88.033 23.4076 87.8713 23.572C87.7102 23.7334 87.5811 23.9237 87.4911 24.1329C87.3991 24.3478 87.3528 24.579 87.3535 24.8125V28.9304H85.8998V21.6492H86.9491L87.2726 22.3854C87.4096 22.229 87.5661 22.0912 87.7389 21.9755C87.9222 21.8673 88.1159 21.777 88.3161 21.7058C88.577 21.612 88.8528 21.5654 89.1307 21.5683Z" fill="#121225"/>
</g>
<defs>
<clipPath id="clip0_168_1645">
<rect width="90" height="18.2609" fill="white" transform="translate(0 16)"/>
</clipPath>
</defs>
</svg>
