<svg width="44" height="44" viewBox="0 0 44 44" fill="none" xmlns="http://www.w3.org/2000/svg">
<path d="M34.689 20.2131L34.1956 20.2937L34.2562 20.6648L34.6295 20.7096L34.689 20.2131ZM33.8402 33L33.8461 32.5H33.8402V33ZM14.1366 16.8021L14.0023 17.2837L14.3877 17.3911L14.577 17.0387L14.1366 16.8021ZM35.1825 20.1325C34.29 14.6693 29.5491 10.5 23.8334 10.5V11.5C29.0511 11.5 33.3808 15.3063 34.1956 20.2937L35.1825 20.1325ZM40.8334 26.5838C40.8334 23.0452 38.1765 20.1279 34.7486 19.7167L34.6295 20.7096C37.5609 21.0612 39.8334 23.5575 39.8334 26.5838H40.8334ZM33.9167 33.5004C37.7367 33.5004 40.8334 30.4037 40.8334 26.5838H39.8334C39.8334 29.8515 37.1844 32.5004 33.9167 32.5004V33.5004ZM33.8344 33.5C33.8618 33.5003 33.8892 33.5004 33.9167 33.5004V32.5004C33.8931 32.5004 33.8696 32.5003 33.8461 32.5L33.8344 33.5ZM23.8334 33.5H33.8402V32.5H23.8334V33.5ZM11.9167 33.5H23.8334V32.5H11.9167V33.5ZM3.16675 24.75C3.16675 29.5825 7.08426 33.5 11.9167 33.5V32.5C7.63654 32.5 4.16675 29.0302 4.16675 24.75H3.16675ZM11.9167 16C7.08426 16 3.16675 19.9175 3.16675 24.75H4.16675C4.16675 20.4698 7.63654 17 11.9167 17V16ZM14.2708 16.3204C13.5212 16.1115 12.7316 16 11.9167 16V17C12.64 17 13.3393 17.0989 14.0023 17.2837L14.2708 16.3204ZM23.8334 10.5C19.447 10.5 15.635 12.956 13.6961 16.5655L14.577 17.0387C16.3487 13.7406 19.8298 11.5 23.8334 11.5V10.5Z" fill="#121225"/>
</svg>
