<svg width="44" height="18" viewBox="0 0 44 18" fill="none" xmlns="http://www.w3.org/2000/svg">
<path fill-rule="evenodd" clip-rule="evenodd" d="M11.2173 17.7363C8.24417 17.7363 4.62012 17.0041 2.95606 15.5397C1.292 14.0532 0.459961 11.8788 0.459961 9.01659C0.459961 6.13221 1.292 3.95783 2.95606 2.49346C4.62012 1.00689 8.24417 0.263581 11.2173 0.263611C16.4517 0.263663 19.562 2.57728 22.0151 5.30346C24.4471 2.57974 27.5336 0.263719 32.7826 0.263719C35.7557 0.263719 39.3798 1.007 41.0438 2.49357C42.7079 3.95794 43.5399 6.13232 43.5399 9.0167C43.5399 11.8789 42.7079 14.0533 41.0438 15.5398C39.3798 17.0042 35.7557 17.7364 32.7826 17.7364C29.2195 17.7364 26.6529 16.6692 24.611 15.1317L27.3917 11.6654C26.5464 10.8817 25.7685 9.95337 24.9887 8.97003C24.728 9.29855 24.4674 9.63385 24.2046 9.97207L24.1988 9.97953C23.5 10.8789 22.7839 11.8004 22.0001 12.6798C19.5658 15.4107 16.4771 17.7363 11.2173 17.7363ZM6.58386 5.28886C7.36043 4.49011 9.77525 4.09071 11.2174 4.09073C13.5576 4.09076 15.2771 5.05036 16.7783 6.46061L19.389 2.85986C20.3654 3.58919 21.2244 4.42473 22.0151 5.30346C21.2253 6.18802 20.5045 7.1159 19.8011 8.02109C19.5443 8.35154 19.2899 8.67879 19.0353 9.0001C16.9218 11.6667 14.7946 13.9087 11.2174 13.9087C9.77525 13.9087 7.36043 13.5093 6.58386 12.7106C5.82949 11.9118 5.4523 10.6804 5.4523 9.01636C5.4523 7.33011 5.82949 6.08761 6.58386 5.28886ZM37.383 12.7107C36.6286 13.5094 34.2814 13.9707 32.8392 13.9707C29.2719 13.9707 27.1371 11.6794 24.9887 8.97003C27.0944 6.31662 29.219 4.09084 32.7827 4.09084C34.2249 4.09084 36.6286 4.49021 37.383 5.28896C38.1596 6.08772 38.5479 7.33022 38.5479 9.01647C38.5479 10.6805 38.1596 11.9119 37.383 12.7107Z" fill="url(#paint0_linear_168_1616)"/>
<defs>
<linearGradient id="paint0_linear_168_1616" x1="43.5399" y1="3.52724" x2="4.37632" y2="13.3181" gradientUnits="userSpaceOnUse">
<stop stop-color="#9C38CB"/>
<stop offset="1" stop-color="#7EBEFF"/>
</linearGradient>
</defs>
</svg>
