<svg width="24" height="24" viewBox="0 0 24 24" fill="none" xmlns="http://www.w3.org/2000/svg">
<rect width="24" height="24" rx="12" fill="#64A9DC"/>
<path fill-rule="evenodd" clip-rule="evenodd" d="M16.7663 7.07416L4.95546 11.6292C4.14963 11.9525 4.15379 12.4025 4.80879 12.6025L7.75379 13.5225L8.88129 16.9775C9.01796 17.3558 8.95046 17.5058 9.34796 17.5058C9.65463 17.5058 9.78963 17.3658 9.96129 17.1992C10.0696 17.0933 10.7138 16.4658 11.4338 15.7667L14.498 18.0308C15.0613 18.3417 15.4688 18.1808 15.6088 17.5075L17.6205 8.02916C17.8263 7.20416 17.3055 6.82916 16.7663 7.07416ZM8.21629 13.3108L14.8555 9.12249C15.1871 8.92083 15.4913 9.02916 15.2413 9.25083L9.55629 14.38L9.33546 16.7408L8.21629 13.3108Z" fill="white"/>
</svg>
