<svg width="24" height="24" viewBox="0 0 24 24" fill="none" xmlns="http://www.w3.org/2000/svg">
<rect width="24" height="24" rx="12" fill="#65BC54"/>
<path fill-rule="evenodd" clip-rule="evenodd" d="M18.6663 11.8283C18.6663 15.415 15.7355 18.3233 12.1205 18.3233C11.0148 18.3249 9.92662 18.0468 8.95717 17.515L5.33301 18.6667L6.51467 15.1817C5.89905 14.1716 5.57407 13.0112 5.57551 11.8283C5.57467 8.24084 8.50551 5.33334 12.1205 5.33334C15.7355 5.33334 18.6663 8.24168 18.6663 11.8283ZM12.1205 6.36751C9.08634 6.36751 6.61801 8.81751 6.61801 11.8283C6.61709 12.9801 6.98441 14.1019 7.66634 15.03L6.97884 17.0575L9.09301 16.3858C9.99211 16.9766 11.0447 17.2906 12.1205 17.2892C15.1555 17.2892 17.6238 14.8392 17.6238 11.8283C17.6238 8.81751 15.1555 6.36751 12.1205 6.36751ZM15.4263 13.3242C15.3855 13.2575 15.2788 13.2175 15.118 13.1383C14.958 13.0592 14.1688 12.6733 14.0222 12.6208C13.8747 12.5675 13.768 12.5408 13.6605 12.7C13.5004 12.9155 13.3307 13.1237 13.1522 13.3242C13.0588 13.4308 12.9655 13.4433 12.8055 13.3642C12.6447 13.2842 12.128 13.1167 11.5147 12.5742C11.1645 12.2528 10.864 11.8813 10.623 11.4717C10.5288 11.3125 10.6122 11.2258 10.693 11.1467C10.7647 11.075 10.853 10.9608 10.9338 10.8683C11.0138 10.775 11.0405 10.7092 11.0938 10.6025C11.1472 10.4958 11.1205 10.4033 11.0805 10.3233C11.0405 10.2442 10.7197 9.46084 10.5855 9.14168C10.4522 8.82334 10.3188 8.87668 10.2247 8.87668C10.1313 8.87668 10.0247 8.86334 9.91717 8.86334C9.83607 8.86546 9.75627 8.88423 9.68272 8.91849C9.60918 8.95275 9.54347 9.00178 9.48967 9.06251C9.34217 9.22084 8.92801 9.60668 8.92801 10.39C8.92801 11.1733 9.50301 11.93 9.58301 12.0367C9.66301 12.1425 10.693 13.8025 12.3238 14.44C13.9555 15.0767 13.9555 14.865 14.2488 14.8375C14.543 14.8117 15.1988 14.4533 15.3322 14.0808C15.4655 13.7092 15.4655 13.39 15.4263 13.3242Z" fill="white"/>
</svg>
