<svg width="24" height="24" viewBox="0 0 24 24" fill="none" xmlns="http://www.w3.org/2000/svg">
<rect width="24" height="24" rx="12" fill="#7B519D"/>
<path fill-rule="evenodd" clip-rule="evenodd" d="M17.3614 14.9783C16.9581 14.6525 16.5264 14.3592 16.1022 14.06C15.2556 13.4617 14.4814 13.4158 13.8497 14.3767C13.4947 14.9167 12.9989 14.9408 12.4797 14.7033C11.0481 14.0517 9.94307 13.0458 9.29557 11.5842C9.00891 10.9367 9.01224 10.3567 9.68307 9.89918C10.0372 9.65751 10.3947 9.37085 10.3664 8.84251C10.3289 8.15251 8.66391 5.84835 8.00641 5.60501C7.74169 5.50794 7.45112 5.50794 7.18641 5.60501C5.64391 6.12501 5.00474 7.40001 5.61641 8.91001C7.44141 13.4142 10.6522 16.5492 15.0739 18.4625C15.3256 18.5708 15.6056 18.615 15.7472 18.6542C16.7539 18.6642 17.9331 17.6892 18.2739 16.7225C18.6014 15.7917 17.9097 15.4225 17.3614 14.9783ZM12.4039 6.06668C15.6364 6.56668 17.1272 8.11168 17.5389 11.3833C17.5764 11.6858 17.4639 12.1408 17.8939 12.1492C18.3422 12.1575 18.2339 11.7092 18.2381 11.4075C18.2756 8.32501 15.6022 5.46835 12.4981 5.36335C12.2639 5.39668 11.7789 5.20085 11.7481 5.72835C11.7281 6.08418 12.1364 6.02585 12.4039 6.06668Z" fill="white"/>
<path fill-rule="evenodd" clip-rule="evenodd" d="M13.0367 6.96417C12.7259 6.92667 12.3159 6.77917 12.2426 7.21333C12.1676 7.66833 12.6242 7.62167 12.9184 7.68834C14.9142 8.13667 15.6101 8.86667 15.9384 10.8567C15.9859 11.1475 15.8909 11.5983 16.3817 11.5233C16.7451 11.4683 16.6134 11.0817 16.6442 10.855C16.6609 8.94417 15.0309 7.205 13.0367 6.96417Z" fill="white"/>
<path fill-rule="evenodd" clip-rule="evenodd" d="M13.2198 8.52669C13.0123 8.53169 12.809 8.55419 12.7323 8.77669C12.6182 9.11003 12.859 9.19003 13.104 9.23003C13.9232 9.36169 14.354 9.84669 14.4357 10.6675C14.4582 10.8909 14.5982 11.0709 14.8123 11.0459C15.109 11.01 15.1365 10.745 15.1273 10.4925C15.1415 9.57086 14.1048 8.50503 13.2198 8.52669Z" fill="white"/>
</svg>
