<svg width="18" height="17" viewBox="0 0 18 17" fill="none" xmlns="http://www.w3.org/2000/svg">
<path d="M9.59479 2.30974C9.32984 1.85313 8.67046 1.85313 8.40551 2.30974L6.53959 5.52539C6.40871 5.75095 6.18249 5.90487 5.92463 5.94382L2.42779 6.47197C1.84048 6.56068 1.63446 7.30222 2.09186 7.68117L4.69686 9.83939C4.93799 10.0392 5.05137 10.3543 4.9928 10.6619L4.31137 14.2404C4.20365 14.8061 4.7975 15.2457 5.30704 14.9774L8.59976 13.2436C8.85038 13.1117 9.14992 13.1117 9.40053 13.2436L12.6933 14.9774C13.2028 15.2457 13.7966 14.8061 13.6889 14.2404L13.0075 10.6619C12.9489 10.3543 13.0623 10.0392 13.3034 9.83939L15.9084 7.68117C16.3658 7.30223 16.1598 6.56068 15.5725 6.47197L12.0757 5.94382C11.8178 5.90487 11.5916 5.75095 11.4607 5.52539L9.59479 2.30974Z" fill="#FCBF02"/>
</svg>
